<?xml version="1.0" encoding="UTF-8" standalone="no"?>
<svg width="32px" height="32px" viewBox="0 0 32 32" version="1.1" xmlns="http://www.w3.org/2000/svg" xmlns:xlink="http://www.w3.org/1999/xlink" xmlns:sketch="http://www.bohemiancoding.com/sketch/ns">
    <!-- Generator: Sketch 3.2.2 (9983) - http://www.bohemiancoding.com/sketch -->
    <title>Slice 1</title>
    <desc>Created with Sketch.</desc>
    <defs></defs>
    <g id="Page-1" stroke="none" stroke-width="1" fill="none" fill-rule="evenodd" sketch:type="MSPage">
        <g id="ARROW" sketch:type="MSLayerGroup" transform="translate(-451.000000, 0.000000)" fill="#FFFFFF" opacity="0.9">
            <g id="circle-stroke" transform="translate(453.000000, 2.000000)" sketch:type="MSShapeGroup">
                <path d="M19.6875,12.6875 L11.732875,12.6875 L13.5655625,11.038125 L13.5625,11.034625 C13.829375,10.7944375 14,10.4496875 14,10.0625 C14,9.3375625 13.4124375,8.75 12.6875,8.75 C12.34975,8.75 12.04525,8.88125 11.8125,9.090375 L11.8094375,9.086875 L7.4344375,13.024375 L7.4375,13.027875 C7.170625,13.2680625 7,13.612375 7,14 C7,14.387625 7.1710625,14.7319375 7.4375,14.972125 L7.4344375,14.975625 L11.8094375,18.913125 L11.8125,18.909625 C12.04525,19.1191875 12.34975,19.25 12.6875,19.25 C13.4124375,19.25 14,18.6624375 14,17.9375 C14,17.5503125 13.8289375,17.2055625 13.5625,16.965375 L13.5655625,16.961875 L11.732875,15.3125 L19.6875,15.3125 C20.4124375,15.3125 21,14.7249375 21,14 C21,13.2750625 20.4124375,12.6875 19.6875,12.6875 L19.6875,12.6875 Z M14,0 C6.2680625,0 0,6.2680625 0,14 C0,21.7319375 6.2680625,28 14,28 C21.7319375,28 28,21.7319375 28,14 C28,6.2680625 21.7319375,0 14,0 L14,0 Z M14,25.375 C7.7179375,25.375 2.625,20.2825 2.625,14 C2.625,7.7175 7.7179375,2.625 14,2.625 C20.2820625,2.625 25.375,7.7175 25.375,14 C25.375,20.2825 20.2825,25.375 14,25.375 L14,25.375 Z" id="circle-stroke-left"></path>
            </g>
        </g>
    </g>
</svg>