<?xml version="1.0" encoding="UTF-8" standalone="no"?>
<svg width="32px" height="32px" viewBox="0 0 32 32" version="1.1" xmlns="http://www.w3.org/2000/svg" xmlns:xlink="http://www.w3.org/1999/xlink" xmlns:sketch="http://www.bohemiancoding.com/sketch/ns">
    <!-- Generator: Sketch 3.2.2 (9983) - http://www.bohemiancoding.com/sketch -->
    <title>Slice 1</title>
    <desc>Created with Sketch.</desc>
    <defs></defs>
    <g id="Page-1" stroke="none" stroke-width="1" fill="none" fill-rule="evenodd" sketch:type="MSPage">
        <g id="ARROW" sketch:type="MSLayerGroup" transform="translate(-451.000000, 0.000000)" fill="#FFFFFF" opacity="0.9">
            <g id="simple" transform="translate(461.000000, 6.000000)" sketch:type="MSShapeGroup">
                <path d="M11.58,17.5795238 L3.618,9.99714286 L11.477,2.51238095 C11.797,2.25 12,1.86190476 12,1.42857143 C12,0.63952381 11.3285,0 10.5,0 C10.097,0 9.732,0.151428571 9.4625,0.397619048 L9.4585,0.393809524 L0.4585,8.9652381 L0.459,8.96571429 C0.176,9.22571429 0,9.59 0,9.99380952 L0,9.99714286 L0,10.0004762 C0,10.4042857 0.176,10.7685714 0.459,11.0285714 L0.4585,11.0290476 L9.4585,19.6004762 L9.459,19.6 C9.729,19.8471429 10.0955,20 10.5,20 C11.3285,20 12,19.3604762 12,18.5714286 C12,18.1861905 11.8395,17.8371429 11.58,17.5795238 L11.58,17.5795238 L11.58,17.5795238 Z" id="simple-small-left"></path>
            </g>
        </g>
    </g>
</svg>