<?xml version="1.0" encoding="UTF-8" standalone="no"?>
<svg width="32px" height="32px" viewBox="0 0 32 32" version="1.1" xmlns="http://www.w3.org/2000/svg" xmlns:xlink="http://www.w3.org/1999/xlink" xmlns:sketch="http://www.bohemiancoding.com/sketch/ns">
    <!-- Generator: Sketch 3.2.2 (9983) - http://www.bohemiancoding.com/sketch -->
    <title>Slice 1</title>
    <desc>Created with Sketch.</desc>
    <defs></defs>
    <g id="Page-1" stroke="none" stroke-width="1" fill="none" fill-rule="evenodd" sketch:type="MSPage">
        <g id="ARROW" sketch:type="MSLayerGroup" transform="translate(-451.000000, 0.000000)" fill="#FFFFFF" opacity="0.8">
            <g id="normal" transform="translate(460.000000, 6.000000)" sketch:type="MSShapeGroup">
                <path d="M11.654,3.431 L5.328,9.955 L11.654,16.556 C11.896,16.808 12.015,17.1 12.015,17.434 C12.015,17.768 11.896,18.06 11.654,18.312 L10.41,19.611 C10.169,19.863 9.887,19.987 9.569,19.987 C9.249,19.987 8.97,19.863 8.729,19.611 L0.363,10.891 C0.122,10.639 -1.42108547e-14,10.345 -1.42108547e-14,10.005 C-1.42108547e-14,9.669 0.122,9.374 0.363,9.123 L8.729,0.377 C8.96,0.125 9.239,-1.77635684e-14 9.562,-1.77635684e-14 C9.887,-1.77635684e-14 10.169,0.125 10.41,0.377 L11.654,1.702 C11.896,1.954 12.015,2.243 12.015,2.566 C12.015,2.89 11.896,3.179 11.654,3.431 L11.654,3.431 Z" id="normal-left"></path>
            </g>
        </g>
    </g>
</svg>