<?xml version="1.0" encoding="UTF-8" standalone="no"?>
<svg width="32px" height="32px" viewBox="0 0 32 32" version="1.1" xmlns="http://www.w3.org/2000/svg" xmlns:xlink="http://www.w3.org/1999/xlink" xmlns:sketch="http://www.bohemiancoding.com/sketch/ns">
    <!-- Generator: Sketch 3.2.2 (9983) - http://www.bohemiancoding.com/sketch -->
    <title>Slice 1</title>
    <desc>Created with Sketch.</desc>
    <defs></defs>
    <g id="Page-1" stroke="none" stroke-width="1" fill="none" fill-rule="evenodd" sketch:type="MSPage">
        <g id="ARROW" sketch:type="MSLayerGroup" transform="translate(-451.000000, 0.000000)" fill="#FFFFFF" opacity="0.8">
            <g id="normal" transform="translate(461.000000, 6.000000)" sketch:type="MSShapeGroup">
                <path d="M3.286,19.611 C3.045,19.863 2.766,19.987 2.446,19.987 C2.128,19.987 1.846,19.863 1.605,19.611 L0.361,18.312 C0.119,18.06 0,17.768 0,17.434 C0,17.1 0.119,16.808 0.361,16.556 L6.687,9.955 L0.361,3.431 C0.119,3.179 0,2.89 0,2.566 C0,2.243 0.119,1.954 0.361,1.702 L1.605,0.377 C1.846,0.125 2.128,0 2.453,0 C2.776,0 3.055,0.125 3.286,0.377 L11.652,9.123 C11.893,9.374 12.015,9.669 12.015,10.005 C12.015,10.345 11.893,10.639 11.652,10.891 L3.286,19.611 Z" id="normal-right"></path>
            </g>
        </g>
    </g>
</svg>