<?xml version="1.0" encoding="UTF-8" standalone="no"?>
<svg width="32px" height="32px" viewBox="0 0 32 32" version="1.1" xmlns="http://www.w3.org/2000/svg" xmlns:xlink="http://www.w3.org/1999/xlink" xmlns:sketch="http://www.bohemiancoding.com/sketch/ns">
    <!-- Generator: Sketch 3.2.2 (9983) - http://www.bohemiancoding.com/sketch -->
    <title>Slice 1</title>
    <desc>Created with Sketch.</desc>
    <defs></defs>
    <g id="Page-1" stroke="none" stroke-width="1" fill="none" fill-rule="evenodd" sketch:type="MSPage">
        <g id="ARROW" sketch:type="MSLayerGroup" transform="translate(-451.000000, 0.000000)" fill="#FFFFFF" opacity="0.9">
            <g id="simple" transform="translate(457.000000, 6.000000)" sketch:type="MSShapeGroup">
                <path d="M15.58,17.5795238 L7.618,9.99714286 L15.477,2.51238095 C15.797,2.25 16,1.86190476 16,1.42857143 C16,0.63952381 15.3285,0 14.5,0 C14.097,0 13.732,0.151428571 13.4625,0.397619048 L13.4585,0.393809524 L4.4585,8.9652381 L4.459,8.96571429 C4.176,9.22571429 4,9.59 4,9.99380952 L4,9.99714286 L4,10.0004762 C4,10.4042857 4.176,10.7685714 4.459,11.0285714 L4.4585,11.0290476 L13.4585,19.6004762 L13.459,19.6 C13.729,19.8471429 14.0955,20 14.5,20 C15.3285,20 16,19.3604762 16,18.5714286 C16,18.1861905 15.8395,17.8371429 15.58,17.5795238 L15.58,17.5795238 L15.58,17.5795238 Z" id="simple-small-left" transform="translate(10.000000, 10.000000) rotate(-90.000000) translate(-10.000000, -10.000000) "></path>
            </g>
        </g>
    </g>
</svg>