<?xml version="1.0" encoding="UTF-8" standalone="no"?>
<svg width="320px" height="240px" viewBox="0 0 320 240" version="1.1" xmlns="http://www.w3.org/2000/svg" xmlns:xlink="http://www.w3.org/1999/xlink" xmlns:sketch="http://www.bohemiancoding.com/sketch/ns">
    <!-- Generator: Sketch 3.2.2 (9983) - http://www.bohemiancoding.com/sketch -->
    <title>Image</title>
    <desc>Created with Sketch.</desc>
    <defs>
        <rect id="path-1" x="0" y="0" width="320" height="240"></rect>
        <path id="path-3" d="M55.5001345,109.013697 C58.6965888,99.2794366 95.0067879,67.9334291 95.0067917,42.643741 C95.0067957,16.0069027 73.5639862,0.210490574 48.0266835,0.210490574 C22.408069,0.210490574 1.0465752,20.9810226 1.0465752,42.643741 C1.0465752,70.9851628 37.3242534,99.2431689 40.5532324,109.013697 L55.5001345,109.013697 Z"></path>
        <path id="path-4" d="M40.2001419,109.010795 C31.6990562,96.2626728 0.982488543,64.1522805 0.982488543,41.1535331 C0.982488543,14.5166949 22.4412556,0.207587402 47.9767124,0.207587402 C48.0291095,30.0740675 47.9767124,96.3025791 47.9767124,109.010794 C46.6163529,109.060664 44.0339644,108.930957 40.2001419,109.010795 Z"></path>
        <path id="path-5" d="M55.9740836,109.010795 C66.7434479,94.8770668 95.0067917,63.9991012 95.0067917,41.0958778 C95.0067917,14.4590395 73.5475021,0.207587402 48.0120453,0.207587402 C47.961455,30.0740675 48.0120453,96.3025791 48.0120453,109.010794 C49.397778,109.061594 47.9549058,108.928328 55.9740836,109.010795 Z"></path>
        <path id="path-6" d="M53.9359963,109.010795 C61.9568076,94.8770668 83.0067917,63.9991012 83.0067917,41.0958778 C83.0067917,14.4590395 67.0243337,0.207587402 48.0060263,0.207587402 C47.9683477,30.0740675 48.0060263,96.3025791 48.0060263,109.010794 C49.0380929,109.061594 47.96347,108.928328 53.9359963,109.010795 Z"></path>
        <path id="path-7" d="M18.9359963,109.010795 C26.9568076,94.8770668 48.0067917,63.9991012 48.0067917,41.0958778 C48.0067917,14.4590395 32.0243337,0.207587402 13.0060263,0.207587402 C12.9683477,30.0740675 13.0060263,96.3025791 13.0060263,109.010794 C14.0380929,109.061594 12.96347,108.928328 18.9359963,109.010795 Z"></path>
        <path id="path-8" d="M69.531421,138.430091 C73.5935816,126.069126 119.737793,86.2646719 119.737798,54.1507822 C119.737803,20.3262257 92.4875657,0.267289618 60.0339102,0.267289618 C27.4769211,0.267289618 0.330022653,26.6425684 0.330022653,54.1507822 C0.330022653,90.1398893 46.4329054,126.023072 50.5363995,138.430091 L69.531421,138.430091 Z"></path>
        <path id="path-9" d="M50.0876803,138.426406 C39.2842173,122.238315 0.24857919,81.4632134 0.24857919,52.2584548 C0.24857919,18.4338982 27.5190957,0.26360305 59.9704053,0.26360305 C60.0369933,38.1892921 59.9704053,122.288989 59.9704053,138.426405 C58.2416151,138.489732 54.9598297,138.325025 50.0876803,138.426406 Z"></path>
        <path id="path-10" d="M70.1337312,138.426406 C83.8197984,120.478815 119.737798,81.2686999 119.737798,52.1852417 C119.737798,18.3606851 92.4666172,0.26360305 60.0153076,0.26360305 C59.9510157,38.1892921 60.0153076,122.288989 60.0153076,138.426405 C61.7763429,138.490913 59.9426928,138.321687 70.1337312,138.426406 Z"></path>
        <path id="path-11" d="M67.5436619,138.426406 C77.7367763,120.478815 104.487798,81.2686999 104.487798,52.1852417 C104.487798,18.3606851 84.1767574,0.26360305 60.0076585,0.26360305 C59.9597752,38.1892921 60.0076585,122.288989 60.0076585,138.426405 C61.319243,138.490913 59.9535764,138.321687 67.5436619,138.426406 Z"></path>
        <path id="path-12" d="M23.0644952,138.426406 C33.2576097,120.478815 60.0086311,81.2686999 60.0086311,52.1852417 C60.0086311,18.3606851 39.6975907,0.26360305 15.5284918,0.26360305 C15.4806085,38.1892921 15.5284918,122.288989 15.5284918,138.426405 C16.8400763,138.490913 15.4744098,138.321687 23.0644952,138.426406 Z"></path>
        <path id="path-13" d="M28.7691509,56.965885 C30.4319142,51.9018547 49.3201163,34.2388571 49.3201165,22.438406 C49.3201167,8.58118907 38.1657848,0.363460388 24.8815368,0.363460388 C11.5549913,0.363460388 0.44295717,11.1688632 0.44295717,22.438406 C0.44295717,37.1823942 19.3142404,51.8829873 20.9939228,56.965885 L28.7691509,56.965885 Z"></path>
        <path id="path-14" d="M20.811721,56.9643753 C16.3892221,50.3324511 0.409617525,33.6277407 0.409617525,21.6631588 C0.409617525,7.80594189 11.5730592,0.361950078 24.8573071,0.361950078 C24.8845655,15.8993156 24.8573071,50.3532115 24.8573071,56.9643747 C24.1496106,56.9903186 22.806181,56.9228414 20.811721,56.9643753 Z"></path>
        <path id="path-15" d="M29.0177599,56.9643753 C34.6202798,49.6116207 49.3236497,33.5480525 49.3236497,21.6331649 C49.3236497,7.775948 38.1599362,0.361950078 24.8756883,0.361950078 C24.8493698,15.8993156 24.8756883,50.3532115 24.8756883,56.9643747 C25.5965846,56.9908025 24.8459628,56.921474 29.0177599,56.9643753 Z"></path>
        <path id="path-16" d="M27.9574907,56.9643753 C32.1301377,49.6116207 43.0809192,33.5480525 43.0809192,21.6331649 C43.0809192,7.775948 34.7664043,0.361950078 24.872557,0.361950078 C24.8529556,15.8993156 24.872557,50.3532115 24.872557,56.9643747 C25.4094665,56.9908025 24.8504181,56.921474 27.9574907,56.9643753 Z"></path>
        <path id="path-17" d="M21.7793098,56.9643753 C17.6066628,49.6116207 6.65588128,33.5480525 6.65588128,21.6331649 C6.65588128,7.775948 14.9703961,0.361950078 24.8642434,0.361950078 C24.8838449,15.8993156 24.8642434,50.3532115 24.8642434,56.9643747 C24.327334,56.9908025 24.8863824,56.921474 21.7793098,56.9643753 Z"></path>
    </defs>
    <g id="Page-1" stroke="none" stroke-width="1" fill="none" fill-rule="evenodd" sketch:type="MSPage">
        <g id="Image" sketch:type="MSLayerGroup">
            <mask id="mask-2" sketch:name="background 3" fill="white">
                <use xlink:href="#path-1"></use>
            </mask>
            <use id="background-3" fill="#7FBECF" sketch:type="MSShapeGroup" xlink:href="#path-1"></use>
            <g id="Balloon-big" mask="url(#mask-2)">
                <g transform="translate(194.000000, 47.000000)">
                    <path d="M54.025641,115.114286 L54.025641,122.889796 C54.025641,124.608184 52.6822514,126 51.023653,126 L45.0196768,126 C43.3610784,126 42.0176887,124.608184 42.0176887,122.889796 L42.0176887,115.114286 L54.025641,115.114286 Z" id="path-1" fill="#6B6761" fill-rule="evenodd" sketch:type="MSShapeGroup"></path>
                    <g id="path-1">
                        <use fill="#E0564B" fill-rule="evenodd" sketch:type="MSShapeGroup" xlink:href="#path-3"></use>
                        <use fill="none" xlink:href="#path-3"></use>
                    </g>
                    <g id="path-1">
                        <use fill="#E0564B" fill-rule="evenodd" sketch:type="MSShapeGroup" xlink:href="#path-4"></use>
                        <use fill="none" xlink:href="#path-4"></use>
                    </g>
                    <g id="path-1">
                        <use fill="#EE7369" fill-rule="evenodd" sketch:type="MSShapeGroup" xlink:href="#path-5"></use>
                        <use fill="none" xlink:href="#path-5"></use>
                    </g>
                    <g id="path-1-4">
                        <use fill="#E0564B" fill-rule="evenodd" sketch:type="MSShapeGroup" xlink:href="#path-6"></use>
                        <use fill="none" xlink:href="#path-6"></use>
                    </g>
                    <g id="path-1-6">
                        <use fill="#EE7369" fill-rule="evenodd" sketch:type="MSShapeGroup" transform="translate(30.498036, 54.615148) scale(-1, 1) translate(-30.498036, -54.615148) " xlink:href="#path-7"></use>
                        <use fill="none" xlink:href="#path-7"></use>
                    </g>
                    <path d="M56.0017218,109.013697 C62.8114295,99.8818023 70.6022539,90.403425 75.4794779,84.0375236 C55.9267522,83.7350721 39.2301162,84.0650514 20.8864298,84.0375236 C27.517531,91.5244219 34.4873204,100.414878 40.2367568,109.013697 C40.2367568,109.013697 53.9102337,109.008622 56.0017218,109.013697 Z" id="path-1-2" opacity="0.2" fill="#000000" fill-rule="evenodd" sketch:type="MSShapeGroup"></path>
                </g>
            </g>
            <g id="Balloon-big-2" mask="url(#mask-2)">
                <g transform="translate(25.000000, 14.000000)">
                    <path d="M67.6575855,146.176871 L67.6575855,156.050534 C67.6575855,158.232614 65.9503611,160 63.842559,160 L56.2125059,160 C54.1047038,160 52.3974794,158.232614 52.3974794,156.050534 L52.3974794,146.176871 L67.6575855,146.176871 Z" id="path-1" fill="#6B6761" fill-rule="evenodd" sketch:type="MSShapeGroup"></path>
                    <g id="path-1">
                        <use fill="#4990E2" fill-rule="evenodd" sketch:type="MSShapeGroup" xlink:href="#path-8"></use>
                        <use fill="none" xlink:href="#path-8"></use>
                    </g>
                    <g id="path-1">
                        <use fill="#4990E2" fill-rule="evenodd" sketch:type="MSShapeGroup" xlink:href="#path-9"></use>
                        <use fill="none" xlink:href="#path-9"></use>
                    </g>
                    <g id="path-1">
                        <use fill="#407DC4" fill-rule="evenodd" sketch:type="MSShapeGroup" xlink:href="#path-10"></use>
                        <use fill="none" xlink:href="#path-10"></use>
                    </g>
                    <g id="path-1-4">
                        <use fill="#4A90E2" fill-rule="evenodd" sketch:type="MSShapeGroup" xlink:href="#path-11"></use>
                        <use fill="none" xlink:href="#path-11"></use>
                    </g>
                    <g id="path-1-6">
                        <use fill="#407DC4" fill-rule="evenodd" sketch:type="MSShapeGroup" transform="translate(37.757921, 69.352568) scale(-1, 1) translate(-37.757921, -69.352568) " xlink:href="#path-12"></use>
                        <use fill="none" xlink:href="#path-12"></use>
                    </g>
                    <path d="M70.1688548,138.430092 C78.8228583,126.834035 88.7236977,114.798 94.9218365,106.714316 C70.0735809,106.33025 48.8549394,106.749272 25.5431712,106.714316 C33.9701956,116.221488 42.8276363,127.510956 50.1342117,138.430092 C50.1342117,138.430092 67.510922,138.423647 70.1688548,138.430092 Z" id="path-1-2" opacity="0.2" fill="#000000" fill-rule="evenodd" sketch:type="MSShapeGroup"></path>
                </g>
            </g>
            <g id="Balloon-small" mask="url(#mask-2)">
                <g transform="translate(135.000000, 150.000000)">
                    <path d="M29,60 L29,65 C29,66.105 28.105,67 27,67 L23,67 C21.895,67 21,66.105 21,65 L21,60 L29,60 Z" id="path-1" fill="#6B6761" fill-rule="evenodd" sketch:type="MSShapeGroup"></path>
                    <g id="path-1">
                        <use fill="#F1C40F" fill-rule="evenodd" sketch:type="MSShapeGroup" xlink:href="#path-13"></use>
                        <use fill="none" xlink:href="#path-13"></use>
                    </g>
                    <g id="path-1">
                        <use fill="#F1C40F" fill-rule="evenodd" sketch:type="MSShapeGroup" xlink:href="#path-14"></use>
                        <use fill="none" xlink:href="#path-14"></use>
                    </g>
                    <g id="path-1">
                        <use fill="#D35400" fill-rule="evenodd" sketch:type="MSShapeGroup" xlink:href="#path-15"></use>
                        <use fill="none" xlink:href="#path-15"></use>
                    </g>
                    <g id="path-1-4">
                        <use fill="#E67E22" fill-rule="evenodd" sketch:type="MSShapeGroup" xlink:href="#path-16"></use>
                        <use fill="none" xlink:href="#path-16"></use>
                    </g>
                    <g id="path-1-6">
                        <use fill="#F39C12" fill-rule="evenodd" sketch:type="MSShapeGroup" xlink:href="#path-17"></use>
                        <use fill="none" xlink:href="#path-17"></use>
                    </g>
                    <path d="M29.0321381,56.9658853 C32.5747355,52.215222 36.6396586,47.284309 39.1769248,43.9725918 C29.0050584,43.8152482 19.9309688,43.9869125 10.3880779,43.9725918 C13.8377593,47.8674825 17.8397539,52.4925424 20.830769,56.9658853 C20.830769,56.9658853 27.9440883,56.9632449 29.0321381,56.9658853 Z" id="path-1-2" opacity="0.2" fill="#000000" fill-rule="evenodd" sketch:type="MSShapeGroup"></path>
                </g>
            </g>
        </g>
    </g>
</svg>