<?xml version="1.0" encoding="UTF-8" standalone="no"?>
<svg width="385px" height="266px" viewBox="0 0 385 266" version="1.1" xmlns="http://www.w3.org/2000/svg" xmlns:xlink="http://www.w3.org/1999/xlink" xmlns:sketch="http://www.bohemiancoding.com/sketch/ns">
    <!-- Generator: Sketch 3.2.2 (9983) - http://www.bohemiancoding.com/sketch -->
    <title>Fade</title>
    <desc>Created with Sketch.</desc>
    <defs>
        <rect id="path-1" x="0" y="0" width="385" height="266"></rect>
        <linearGradient x1="49.056047%" y1="98.8729763%" x2="49.056047%" y2="-1.26197253%" id="linearGradient-3">
            <stop stop-color="#D75348" offset="0%"></stop>
            <stop stop-color="#E2574C" offset="100%"></stop>
        </linearGradient>
        <linearGradient x1="49.9609056%" y1="101.40922%" x2="49.9609056%" y2="1.35212293%" id="linearGradient-4">
            <stop stop-color="#D75348" offset="0%"></stop>
            <stop stop-color="#E2574C" offset="100%"></stop>
        </linearGradient>
    </defs>
    <g id="Page-1" stroke="none" stroke-width="1" fill="none" fill-rule="evenodd" sketch:type="MSPage">
        <g id="Fade" sketch:type="MSLayerGroup">
            <mask id="mask-2" sketch:name="background 2" fill="white">
                <use xlink:href="#path-1"></use>
            </mask>
            <use id="background-2" fill="#2C3652" sketch:type="MSShapeGroup" xlink:href="#path-1"></use>
            <g id="rocket-4" mask="url(#mask-2)" sketch:type="MSShapeGroup">
                <g transform="translate(325.376684, 24.250819) rotate(-30.000000) translate(-325.376684, -24.250819) translate(282.064184, -14.540848)">
                    <path d="M29.4492503,51.1997253 C31.4452347,53.0329086 32.0480003,56.0497919 30.0520159,57.8829753 C28.0548284,59.7172669 22.0380003,61.7610336 20.0408128,59.9267419 C18.0448284,58.0924503 20.2694066,52.5651919 22.2653909,50.7309003 C24.2625784,48.8966086 27.4532659,49.3643253 29.4492503,51.1997253 L29.4492503,51.1997253 Z" id="path-1" fill="#EC9F25"></path>
                    <path d="M56.8579243,49.5670077 C56.8579243,49.5670077 55.0375962,64.1504577 53.7346118,67.459941 C52.8190337,69.7863327 40.4027837,75.5308244 34.74569,77.4992244 C33.523315,77.923716 32.4332837,76.653566 33.16719,75.656066 C35.7238306,72.1825494 41.1968462,65.548066 40.9092993,62.8237827 C40.4388775,58.3583077 37.4202368,56.3887994 37.4202368,56.3887994 L56.8579243,49.5670077 L56.8579243,49.5670077 Z" id="path-1" fill="url(#linearGradient-3)"></path>
                    <path d="M31.4441189,26.7164961 C31.4441189,26.7164961 15.6194158,28.3934044 12.0280876,29.5937294 C9.50393139,30.4371711 3.26933764,41.8807128 1.13499389,47.0932044 C0.672993888,48.2203794 2.05177514,49.2234211 3.13458764,48.5473378 C6.90397826,46.1921294 14.1034783,41.1481044 17.0595564,41.4129961 C21.9045408,41.8474628 24.0424939,44.6282711 24.0424939,44.6282711 L31.4441189,26.7164961 L31.4441189,26.7164961 Z" id="path-1" fill="url(#linearGradient-4)"></path>
                    <path d="M38.8191626,59.3190928 C31.902397,52.9450678 30.574147,51.7214678 30.3515689,51.5153178 C30.3515689,51.5153178 30.3455532,51.5108845 30.3311157,51.4964761 C30.3251001,51.4909345 30.3178814,51.4853928 30.3106626,51.4776345 C30.0868814,51.2714845 28.7586314,50.0478845 21.8418657,43.6738595 C30.6836314,18.2985678 52.7032251,7.78048447 53.6753501,7.47680114 C54.8989282,7.05452614 56.0563345,7.20415114 56.0563345,7.20415114 L67.226147,17.4961345 L78.3947564,27.7892261 C78.3947564,27.7892261 78.5571782,28.8565511 78.0987876,29.9837261 C77.7691314,30.8792595 66.3550845,51.1717345 38.8191626,59.3190928 L38.8191626,59.3190928 Z" id="path-1" fill="#EBEBEB"></path>
                    <path d="M78.7528067,27.9514798 C78.3256973,27.5580215 77.0756504,26.4519048 77.0756504,26.4519048 L67.2461192,17.3946048 L57.4177911,8.33619647 C57.4177911,8.33619647 56.3000879,7.27108814 55.8729786,6.87762981 C70.1985879,-0.957178525 81.5994004,0.498063141 81.9675567,0.535746475 C82.4704629,0.585621475 83.7566036,0.815046475 84.4977286,1.49667147 C85.2376504,2.17940481 85.4866973,3.36532147 85.5408379,3.82860481 C85.5817442,4.16775481 87.2552911,14.7501215 78.7528067,27.9514798 L78.7528067,27.9514798 Z" id="path-1" fill="#E0564B"></path>
                    <path d="M38.1569864,57.6388216 C37.1401611,58.6087041 34.1577165,59.2402285 33.0898677,58.2228368 L22.3676453,47.9909818 C21.3010113,46.9735901 22.0262738,44.1948825 23.0430991,43.225 L38.1569864,57.6388216 Z" id="path-1" fill="#A6B0B7"></path>
                    <path d="M50.1882364,57.6969311 C49.1714111,58.6668136 46.1889665,59.298338 45.1211177,58.2809463 L22.3676453,36.965758 C21.3010113,35.9483663 22.0262738,33.1696587 23.0430991,32.1997762 L50.1882364,57.6969311 Z" id="path-1-3" fill="#DE564B"></path>
                    <path d="M62.6475826,22.1189303 C65.6975045,24.9318803 65.6975045,29.4937803 62.6475826,32.3067303 C59.5976607,35.1196803 54.6540201,35.1196803 51.6040982,32.3067303 C48.5541763,29.4937803 48.5541763,24.9318803 51.6040982,22.1189303 C54.6540201,19.304872 59.5976607,19.304872 62.6475826,22.1189303 L62.6475826,22.1189303 Z" id="path-1" fill="#324D5B"></path>
                    <path d="M60.126011,24.4109117 C61.7704963,25.926654 61.7704963,28.3816793 60.126011,29.8974217 C58.4815257,31.4119706 55.8153493,31.4119706 54.170864,29.8974217 C52.5263787,28.3816793 52.5263787,25.926654 54.170864,24.4109117 C55.8153493,22.8963628 58.4815257,22.8963628 60.126011,24.4109117 L60.126011,24.4109117 Z" id="path-1" fill="#CCD0D2"></path>
                </g>
            </g>
            <g id="rocket-5" mask="url(#mask-2)" sketch:type="MSShapeGroup">
                <g transform="translate(325.376684, 290.250819) rotate(-30.000000) translate(-325.376684, -290.250819) translate(282.064184, 251.459152)" id="path-1">
                    <path d="M38.8191626,59.3190928 C31.902397,52.9450678 30.574147,51.7214678 30.3515689,51.5153178 C30.3515689,51.5153178 30.3455532,51.5108845 30.3311157,51.4964761 C30.3251001,51.4909345 30.3178814,51.4853928 30.3106626,51.4776345 C30.0868814,51.2714845 28.7586314,50.0478845 21.8418657,43.6738595 C30.6836314,18.2985678 52.7032251,7.78048447 53.6753501,7.47680114 C54.8989282,7.05452614 56.0563345,7.20415114 56.0563345,7.20415114 L67.226147,17.4961345 L78.3947564,27.7892261 C78.3947564,27.7892261 78.5571782,28.8565511 78.0987876,29.9837261 C77.7691314,30.8792595 66.3550845,51.1717345 38.8191626,59.3190928 L38.8191626,59.3190928 Z" fill="#EBEBEB"></path>
                    <path d="M78.7528067,27.9514798 C78.3256973,27.5580215 77.0756504,26.4519048 77.0756504,26.4519048 L67.2461192,17.3946048 L57.4177911,8.33619647 C57.4177911,8.33619647 56.3000879,7.27108814 55.8729786,6.87762981 C70.1985879,-0.957178525 81.5994004,0.498063141 81.9675567,0.535746475 C82.4704629,0.585621475 83.7566036,0.815046475 84.4977286,1.49667147 C85.2376504,2.17940481 85.4866973,3.36532147 85.5408379,3.82860481 C85.5817442,4.16775481 87.2552911,14.7501215 78.7528067,27.9514798 L78.7528067,27.9514798 Z" fill="#E0564B"></path>
                    <path d="M62.6475826,22.1189303 C65.6975045,24.9318803 65.6975045,29.4937803 62.6475826,32.3067303 C59.5976607,35.1196803 54.6540201,35.1196803 51.6040982,32.3067303 C48.5541763,29.4937803 48.5541763,24.9318803 51.6040982,22.1189303 C54.6540201,19.304872 59.5976607,19.304872 62.6475826,22.1189303 L62.6475826,22.1189303 Z" fill="#324D5B"></path>
                </g>
            </g>
            <g id="stars" mask="url(#mask-2)" sketch:type="MSShapeGroup">
                <g transform="translate(38.000000, 5.000000)">
                    <circle id="Oval-11" fill="#D8D8D8" cx="148" cy="112" r="1"></circle>
                    <circle id="Oval-26" fill="#D8D8D8" cx="338" cy="52" r="1"></circle>
                    <circle id="Oval-27" fill="#D8D8D8" cx="198" cy="192" r="1"></circle>
                    <circle id="Oval-12" opacity="0.5" fill="#D8D8D8" cx="174.5" cy="123.5" r="0.5"></circle>
                    <circle id="Oval-13" opacity="0.5" fill="#D8D8D8" cx="164.5" cy="92.5" r="0.5"></circle>
                    <circle id="Oval-16" fill="#D8D8D8" cx="118" cy="202" r="1"></circle>
                    <circle id="Oval-15" opacity="0.5" fill="#D8D8D8" cx="94.5" cy="213.5" r="0.5"></circle>
                    <circle id="Oval-17" opacity="0.5" fill="#D8D8D8" cx="60.5" cy="219.5" r="0.5"></circle>
                    <circle id="Oval-18" opacity="0.5" fill="#D8D8D8" cx="0.5" cy="189.5" r="0.5"></circle>
                    <circle id="Oval-19" opacity="0.5" fill="#D8D8D8" cx="29.5" cy="167.5" r="0.5"></circle>
                    <circle id="Oval-28" opacity="0.5" fill="#D8D8D8" cx="259.5" cy="147.5" r="0.5"></circle>
                    <circle id="Oval-29" opacity="0.5" fill="#D8D8D8" cx="219.5" cy="127.5" r="0.5"></circle>
                    <circle id="Oval-30" opacity="0.5" fill="#D8D8D8" cx="189.5" cy="157.5" r="0.5"></circle>
                    <circle id="Oval-31" opacity="0.5" fill="#D8D8D8" cx="169.5" cy="157.5" r="0.5"></circle>
                    <circle id="Oval-32" opacity="0.5" fill="#D8D8D8" cx="174.5" cy="151.5" r="0.5"></circle>
                    <circle id="Oval-33" opacity="0.5" fill="#D8D8D8" cx="166.5" cy="147.5" r="0.5"></circle>
                    <circle id="Oval-34" opacity="0.5" fill="#D8D8D8" cx="117.5" cy="114.5" r="0.5"></circle>
                    <circle id="Oval-35" opacity="0.5" fill="#D8D8D8" cx="157.5" cy="24.5" r="0.5"></circle>
                    <circle id="Oval-36" opacity="0.5" fill="#D8D8D8" cx="150.5" cy="12.5" r="0.5"></circle>
                    <circle id="Oval-37" opacity="0.5" fill="#D8D8D8" cx="140.5" cy="32.5" r="0.5"></circle>
                    <circle id="Oval-38" opacity="0.5" fill="#D8D8D8" cx="140.5" cy="72.5" r="0.5"></circle>
                    <circle id="Oval-39" opacity="0.5" fill="#D8D8D8" cx="221.5" cy="20.5" r="0.5"></circle>
                    <circle id="Oval-40" opacity="0.5" fill="#D8D8D8" cx="264.5" cy="10.5" r="0.5"></circle>
                    <circle id="Oval-45" opacity="0.5" fill="#D8D8D8" cx="274.5" cy="160.5" r="0.5"></circle>
                    <circle id="Oval-46" opacity="0.5" fill="#D8D8D8" cx="254.5" cy="190.5" r="0.5"></circle>
                    <circle id="Oval-47" opacity="0.5" fill="#D8D8D8" cx="192.5" cy="221.5" r="0.5"></circle>
                    <circle id="Oval-48" opacity="0.5" fill="#D8D8D8" cx="162.5" cy="241.5" r="0.5"></circle>
                    <circle id="Oval-49" opacity="0.5" fill="#D8D8D8" cx="182.5" cy="251.5" r="0.5"></circle>
                    <circle id="Oval-50" opacity="0.5" fill="#D8D8D8" cx="175.5" cy="52.5" r="0.5"></circle>
                    <circle id="Oval-41" opacity="0.5" fill="#D8D8D8" cx="324.5" cy="20.5" r="0.5"></circle>
                    <circle id="Oval-42" opacity="0.5" fill="#D8D8D8" cx="332.5" cy="16.5" r="0.5"></circle>
                    <circle id="Oval-43" opacity="0.5" fill="#D8D8D8" cx="328.5" cy="46.5" r="0.5"></circle>
                    <circle id="Oval-44" opacity="0.5" fill="#D8D8D8" cx="328.5" cy="66.5" r="0.5"></circle>
                    <circle id="Oval-20" opacity="0.5" fill="#D8D8D8" cx="9.5" cy="197.5" r="0.5"></circle>
                    <circle id="Oval-21" opacity="0.5" fill="#F1F5BB" cx="16.5" cy="229.5" r="0.5"></circle>
                    <circle id="Oval-22" opacity="0.5" fill="#D8D8D8" cx="36.5" cy="199.5" r="0.5"></circle>
                    <circle id="Oval-14" opacity="0.5" fill="#D8D8D8" cx="104.5" cy="182.5" r="0.5"></circle>
                    <circle id="Oval-23" opacity="0.5" fill="#D8D8D8" cx="104.5" cy="242.5" r="0.5"></circle>
                    <circle id="Oval-24" opacity="0.5" fill="#D8D8D8" cx="49.5" cy="248.5" r="0.5"></circle>
                    <circle id="Oval-25" opacity="0.5" fill="#D8D8D8" cx="119.5" cy="118.5" r="0.5"></circle>
                    <path d="M51.98271,184.032667 L53.055874,182.982038 L54.0339374,184.032667 L53.055874,185.058281 L51.98271,184.032667 Z" id="Path-47" fill="#D8D8D8"></path>
                    <path d="M168.061347,24.032667 C169.036931,24.032667 170.055874,22.9820383 170.055874,22.0064545 C170.055874,22.9820383 171.088158,24.032667 172.038727,24.032667 C171.088158,24.032667 170.055874,24.9081906 170.055874,25.9087895 C170.055874,24.9081906 169.036931,24.032667 168.061347,24.032667 Z" id="Path-48" fill="#D8D8D8"></path>
                    <path d="M218.061347,254.032667 C219.036931,254.032667 220.055874,252.982038 220.055874,252.006455 C220.055874,252.982038 221.088158,254.032667 222.038727,254.032667 C221.088158,254.032667 220.055874,254.908191 220.055874,255.908789 C220.055874,254.908191 219.036931,254.032667 218.061347,254.032667 Z" id="Path-53" fill="#D8D8D8"></path>
                    <path d="M321.625911,128.370534 C322.592873,129.626493 324.687955,128.789184 323.774714,127.376241 C322.861472,125.963297 311.043054,117.014654 311.043054,117.014654 C311.043054,117.014654 320.658948,127.114576 321.625911,128.370534 Z" id="Path-49" opacity="0.5" fill="#F1F5BB"></path>
                    <path d="M181.785115,228.071672 C183,227.12979 181.12048,228.129175 183,227.12979 C180.941752,225.652763 161.091495,204.03431 161.091495,204.03431 C161.091495,204.03431 180.833556,226.143953 181.785115,228.071672 Z" id="Path-50" opacity="0.3" fill="#F0F1DF"></path>
                    <path d="M191.785115,232.071672 C193,231.12979 191.12048,232.129175 193,231.12979 C190.941752,229.652763 171.091495,208.03431 171.091495,208.03431 C171.091495,208.03431 190.833556,230.143953 191.785115,232.071672 Z" id="Path-51" opacity="0.3" fill="#F0F1DF"></path>
                    <path d="M168.825279,23.1297907 C170.24835,24.4156259 169.032577,23.1283372 170.319866,24.2010778 C173.538088,21.4119524 189.82418,0.939927454 189.82418,0.939927454 C189.82418,0.939927454 170.96351,20.4822437 168.825279,23.1297907 Z" id="Path-52" opacity="0.1" fill="#F2F5BB"></path>
                </g>
            </g>
            <g id="rocket-3" mask="url(#mask-2)" sketch:type="MSShapeGroup">
                <g transform="translate(80.106761, 79.501638) rotate(-90.000000) translate(-80.106761, -79.501638) translate(52.606761, 54.501638)">
                    <path d="M18.6716818,32.4621159 C19.937194,33.6244075 20.3193649,35.5371993 19.0538527,36.6994909 C17.7875777,37.8624852 13.9727336,39.1582928 12.7064586,37.9952985 C11.4409464,36.8323041 12.8513937,33.3278615 14.1169059,32.1648672 C15.3831809,31.0018729 17.4061696,31.2984189 18.6716818,32.4621159 L18.6716818,32.4621159 Z" id="path-1" fill="#EC9F25"></path>
                    <path d="M36.0495788,31.4269254 C36.0495788,31.4269254 34.8954378,40.6732572 34.0693078,42.7715659 C33.4888046,44.2465659 25.6165407,47.8887408 22.0297786,49.1367637 C21.2547573,49.4059038 20.5636458,48.6005917 21.0289637,47.9681477 C22.6499483,45.765837 26.1199995,41.5593815 25.9376864,39.8321066 C25.6394252,37.0008655 23.7255192,35.7521399 23.7255192,35.7521399 L36.0495788,31.4269254 L36.0495788,31.4269254 Z" id="path-1" fill="#7B3AB4"></path>
                    <path d="M19.9364865,16.9390361 C19.9364865,16.9390361 9.90316417,18.0022447 7.62615762,18.7632857 C6.02576909,19.2980523 2.07285521,26.5535907 0.719619157,29.8584622 C0.426697711,30.5731239 1.30088515,31.2090815 1.98741979,30.780425 C4.37732315,29.2871544 8.94201568,26.0890957 10.8162552,26.2570448 C13.8881163,26.5325093 15.2436408,28.2956227 15.2436408,28.2956227 L19.9364865,16.9390361 L19.9364865,16.9390361 Z" id="path-1" fill="#7B3AB4"></path>
                    <path d="M24.6124789,37.6100312 C20.2270482,33.5687139 19.384899,32.7929159 19.243778,32.6622108 C19.243778,32.6622108 19.2399639,32.6593999 19.2308101,32.6502646 C19.226996,32.646751 19.2224191,32.6432374 19.2178422,32.6383184 C19.0759584,32.5076133 18.2338093,31.7318153 13.8483785,27.690498 C19.4543153,11.6018245 33.4153786,4.93305359 34.0317341,4.74050952 C34.8075182,4.47277488 35.5413475,4.56764149 35.5413475,4.56764149 L42.6233337,11.0930585 L49.7045571,17.6191781 C49.7045571,17.6191781 49.8075373,18.2958932 49.5169043,19.010555 C49.3078926,19.5783492 42.0710547,32.4443689 24.6124789,37.6100312 L24.6124789,37.6100312 Z" id="path-1" fill="#EBEBEB"></path>
                    <path d="M49.9315714,17.7220517 C49.6607716,17.4725876 48.8682055,16.7712775 48.8682055,16.7712775 L42.6359966,11.0286857 L36.4045506,5.28539118 C36.4045506,5.28539118 35.6958943,4.61008149 35.4250945,4.36061746 C44.5079478,-0.606879042 51.7363947,0.315786527 51.9698165,0.339678857 C52.2886737,0.371301058 53.1041242,0.516763185 53.5740191,0.948933273 C54.0431511,1.38180608 54.201054,2.13371176 54.2353808,2.42744687 C54.2613165,2.64247784 55.3223939,9.35200629 49.9315714,17.7220517 L49.9315714,17.7220517 Z" id="path-1" fill="#7B3AB5"></path>
                    <path d="M24.1926399,36.5446903 C23.547943,37.1596241 21.6569863,37.560029 20.9799391,36.914973 L14.1817381,30.4276792 C13.5054611,29.7826232 13.9652986,28.0208417 14.6099955,27.405908 L24.1926399,36.5446903 Z" id="path-1" fill="#A6B0B7"></path>
                    <path d="M31.8208025,36.5815335 C31.1761057,37.1964672 29.285149,37.5968721 28.6081018,36.9518161 L14.1817381,23.4373664 C13.5054611,22.7923105 13.9652986,21.030529 14.6099955,20.4155952 L31.8208025,36.5815335 Z" id="path-1-3" fill="#7B3AB4"></path>
                    <path d="M39.7203906,14.0240456 C41.6541298,15.8075377 41.6541298,18.6999151 39.7203906,20.4834073 C37.7866514,22.2668994 34.6522393,22.2668994 32.7185001,20.4834073 C30.7847609,18.6999151 30.7847609,15.8075377 32.7185001,14.0240456 C34.6522393,12.2398507 37.7866514,12.2398507 39.7203906,14.0240456 L39.7203906,14.0240456 Z" id="path-1" fill="#324D5B"></path>
                    <path d="M38.1216409,15.4772284 C39.1642924,16.4382532 39.1642924,17.9948107 38.1216409,18.9558355 C37.0789893,19.9161035 35.3885558,19.9161035 34.3459043,18.9558355 C33.3032528,17.9948107 33.3032528,16.4382532 34.3459043,15.4772284 C35.3885558,14.5169604 37.0789893,14.5169604 38.1216409,15.4772284 L38.1216409,15.4772284 Z" id="path-1" fill="#CCD0D2"></path>
                </g>
            </g>
        </g>
    </g>
</svg>