<?xml version="1.0" encoding="UTF-8" standalone="no"?>
<svg width="385px" height="266px" viewBox="0 0 385 266" version="1.1" xmlns="http://www.w3.org/2000/svg" xmlns:xlink="http://www.w3.org/1999/xlink" xmlns:sketch="http://www.bohemiancoding.com/sketch/ns">
    <!-- Generator: Sketch 3.2.2 (9983) - http://www.bohemiancoding.com/sketch -->
    <title>Fade</title>
    <desc>Created with Sketch.</desc>
    <defs>
        <rect id="path-1" x="0" y="0" width="385" height="266"></rect>
        <circle id="path-3" cx="32" cy="32" r="32"></circle>
        <circle id="path-5" cx="60" cy="60" r="60"></circle>
    </defs>
    <g id="Page-1" stroke="none" stroke-width="1" fill="none" fill-rule="evenodd" sketch:type="MSPage">
        <g id="Fade" sketch:type="MSLayerGroup">
            <mask id="mask-2" sketch:name="background 2" fill="white">
                <use xlink:href="#path-1"></use>
            </mask>
            <use id="background-2" fill="#2C3652" sketch:type="MSShapeGroup" xlink:href="#path-1"></use>
            <g id="stars" mask="url(#mask-2)" sketch:type="MSShapeGroup">
                <g transform="translate(38.000000, 5.000000)">
                    <circle id="Oval-11" fill="#D8D8D8" cx="148" cy="112" r="1"></circle>
                    <circle id="Oval-26" fill="#D8D8D8" cx="338" cy="52" r="1"></circle>
                    <circle id="Oval-27" fill="#D8D8D8" cx="198" cy="192" r="1"></circle>
                    <circle id="Oval-12" opacity="0.5" fill="#D8D8D8" cx="174.5" cy="123.5" r="0.5"></circle>
                    <circle id="Oval-13" opacity="0.5" fill="#D8D8D8" cx="164.5" cy="92.5" r="0.5"></circle>
                    <circle id="Oval-16" fill="#D8D8D8" cx="118" cy="202" r="1"></circle>
                    <circle id="Oval-15" opacity="0.5" fill="#D8D8D8" cx="94.5" cy="213.5" r="0.5"></circle>
                    <circle id="Oval-17" opacity="0.5" fill="#D8D8D8" cx="60.5" cy="219.5" r="0.5"></circle>
                    <circle id="Oval-18" opacity="0.5" fill="#D8D8D8" cx="0.5" cy="189.5" r="0.5"></circle>
                    <circle id="Oval-19" opacity="0.5" fill="#D8D8D8" cx="29.5" cy="167.5" r="0.5"></circle>
                    <circle id="Oval-28" opacity="0.5" fill="#D8D8D8" cx="259.5" cy="147.5" r="0.5"></circle>
                    <circle id="Oval-29" opacity="0.5" fill="#D8D8D8" cx="219.5" cy="127.5" r="0.5"></circle>
                    <circle id="Oval-30" opacity="0.5" fill="#D8D8D8" cx="189.5" cy="157.5" r="0.5"></circle>
                    <circle id="Oval-31" opacity="0.5" fill="#D8D8D8" cx="169.5" cy="157.5" r="0.5"></circle>
                    <circle id="Oval-32" opacity="0.5" fill="#D8D8D8" cx="174.5" cy="151.5" r="0.5"></circle>
                    <circle id="Oval-33" opacity="0.5" fill="#D8D8D8" cx="166.5" cy="147.5" r="0.5"></circle>
                    <circle id="Oval-34" opacity="0.5" fill="#D8D8D8" cx="117.5" cy="114.5" r="0.5"></circle>
                    <circle id="Oval-35" opacity="0.5" fill="#D8D8D8" cx="157.5" cy="24.5" r="0.5"></circle>
                    <circle id="Oval-36" opacity="0.5" fill="#D8D8D8" cx="150.5" cy="12.5" r="0.5"></circle>
                    <circle id="Oval-37" opacity="0.5" fill="#D8D8D8" cx="140.5" cy="32.5" r="0.5"></circle>
                    <circle id="Oval-38" opacity="0.5" fill="#D8D8D8" cx="140.5" cy="72.5" r="0.5"></circle>
                    <circle id="Oval-39" opacity="0.5" fill="#D8D8D8" cx="221.5" cy="20.5" r="0.5"></circle>
                    <circle id="Oval-40" opacity="0.5" fill="#D8D8D8" cx="264.5" cy="10.5" r="0.5"></circle>
                    <circle id="Oval-45" opacity="0.5" fill="#D8D8D8" cx="274.5" cy="160.5" r="0.5"></circle>
                    <circle id="Oval-46" opacity="0.5" fill="#D8D8D8" cx="254.5" cy="190.5" r="0.5"></circle>
                    <circle id="Oval-47" opacity="0.5" fill="#D8D8D8" cx="192.5" cy="221.5" r="0.5"></circle>
                    <circle id="Oval-48" opacity="0.5" fill="#D8D8D8" cx="162.5" cy="241.5" r="0.5"></circle>
                    <circle id="Oval-49" opacity="0.5" fill="#D8D8D8" cx="182.5" cy="251.5" r="0.5"></circle>
                    <circle id="Oval-50" opacity="0.5" fill="#D8D8D8" cx="175.5" cy="52.5" r="0.5"></circle>
                    <circle id="Oval-41" opacity="0.5" fill="#D8D8D8" cx="324.5" cy="20.5" r="0.5"></circle>
                    <circle id="Oval-42" opacity="0.5" fill="#D8D8D8" cx="332.5" cy="16.5" r="0.5"></circle>
                    <circle id="Oval-43" opacity="0.5" fill="#D8D8D8" cx="328.5" cy="46.5" r="0.5"></circle>
                    <circle id="Oval-44" opacity="0.5" fill="#D8D8D8" cx="328.5" cy="66.5" r="0.5"></circle>
                    <circle id="Oval-20" opacity="0.5" fill="#D8D8D8" cx="9.5" cy="197.5" r="0.5"></circle>
                    <circle id="Oval-21" opacity="0.5" fill="#F1F5BB" cx="16.5" cy="229.5" r="0.5"></circle>
                    <circle id="Oval-22" opacity="0.5" fill="#D8D8D8" cx="36.5" cy="199.5" r="0.5"></circle>
                    <circle id="Oval-14" opacity="0.5" fill="#D8D8D8" cx="104.5" cy="182.5" r="0.5"></circle>
                    <circle id="Oval-23" opacity="0.5" fill="#D8D8D8" cx="104.5" cy="242.5" r="0.5"></circle>
                    <circle id="Oval-24" opacity="0.5" fill="#D8D8D8" cx="49.5" cy="248.5" r="0.5"></circle>
                    <circle id="Oval-25" opacity="0.5" fill="#D8D8D8" cx="119.5" cy="118.5" r="0.5"></circle>
                    <path d="M51.98271,184.032667 L53.055874,182.982038 L54.0339374,184.032667 L53.055874,185.058281 L51.98271,184.032667 Z" id="Path-47" fill="#D8D8D8"></path>
                    <path d="M168.061347,24.032667 C169.036931,24.032667 170.055874,22.9820383 170.055874,22.0064545 C170.055874,22.9820383 171.088158,24.032667 172.038727,24.032667 C171.088158,24.032667 170.055874,24.9081906 170.055874,25.9087895 C170.055874,24.9081906 169.036931,24.032667 168.061347,24.032667 Z" id="Path-48" fill="#D8D8D8"></path>
                    <path d="M218.061347,254.032667 C219.036931,254.032667 220.055874,252.982038 220.055874,252.006455 C220.055874,252.982038 221.088158,254.032667 222.038727,254.032667 C221.088158,254.032667 220.055874,254.908191 220.055874,255.908789 C220.055874,254.908191 219.036931,254.032667 218.061347,254.032667 Z" id="Path-53" fill="#D8D8D8"></path>
                    <path d="M321.625911,128.370534 C322.592873,129.626493 324.687955,128.789184 323.774714,127.376241 C322.861472,125.963297 311.043054,117.014654 311.043054,117.014654 C311.043054,117.014654 320.658948,127.114576 321.625911,128.370534 Z" id="Path-49" opacity="0.5" fill="#F1F5BB"></path>
                    <path d="M181.785115,228.071672 C183,227.12979 181.12048,228.129175 183,227.12979 C180.941752,225.652763 161.091495,204.03431 161.091495,204.03431 C161.091495,204.03431 180.833556,226.143953 181.785115,228.071672 Z" id="Path-50" opacity="0.3" fill="#F0F1DF"></path>
                    <path d="M191.785115,232.071672 C193,231.12979 191.12048,232.129175 193,231.12979 C190.941752,229.652763 171.091495,208.03431 171.091495,208.03431 C171.091495,208.03431 190.833556,230.143953 191.785115,232.071672 Z" id="Path-51" opacity="0.3" fill="#F0F1DF"></path>
                    <path d="M168.825279,23.1297907 C170.24835,24.4156259 169.032577,23.1283372 170.319866,24.2010778 C173.538088,21.4119524 189.82418,0.939927454 189.82418,0.939927454 C189.82418,0.939927454 170.96351,20.4822437 168.825279,23.1297907 Z" id="Path-52" opacity="0.1" fill="#F2F5BB"></path>
                </g>
            </g>
            <g id="moon" mask="url(#mask-2)">
                <g transform="translate(292.500000, 176.000000)">
                    <mask id="mask-4" sketch:name="circle-1" fill="white">
                        <use xlink:href="#path-3"></use>
                    </mask>
                    <use id="circle-1" stroke="none" fill="#F2C668" fill-rule="evenodd" sketch:type="MSShapeGroup" xlink:href="#path-3"></use>
                    <path d="M101.944075,23.061318 C98.7193011,27.9986084 91.0042044,28.2907374 84.7105269,23.7137051 C78.4178818,19.1366729 75.9301398,11.4236406 79.1559463,6.4863503 C82.3807205,1.54905998 90.0958173,1.25693095 96.3894947,5.83499547 C102.68214,10.4120277 105.169882,18.1240277 101.944075,23.061318 L101.944075,23.061318 Z M77.9430431,37.6460922 C77.7056237,40.3165439 75.6503979,42.0796406 73.3536237,41.585189 C71.0568495,41.0897051 69.3876882,38.5245439 69.6261398,35.8540922 C69.8645915,33.1836406 71.918785,31.4195116 74.2165915,31.9149955 C76.5133657,32.4094471 78.1814947,34.9756406 77.9430431,37.6460922 L77.9430431,37.6460922 Z M67.8000753,8.30622127 C66.3745269,7.9903503 65.3381398,6.34802772 65.4857527,4.63860837 C65.6343979,2.92918901 66.9092366,1.80093095 68.334785,2.11783418 C69.7613657,2.4347374 70.7967205,4.07602772 70.6491076,5.78544708 C70.5004624,7.49486643 69.2256237,8.6231245 67.8000753,8.30622127 L67.8000753,8.30622127 Z M58.9040753,26.2644148 C54.1484624,25.941318 50.4715592,22.5193826 50.6934947,18.6195116 C50.9143979,14.7206729 54.9494947,11.82106 59.7061398,12.1431245 C64.4617527,12.4662213 68.138656,15.8881568 67.9177527,19.7880277 C67.6958173,23.6868664 63.6607205,26.5864793 58.9040753,26.2644148 L58.9040753,26.2644148 Z M56.8663979,38.5431245 C62.7275592,39.7044148 66.6181398,45.8401568 65.554914,52.2473826 C64.4916882,58.6546084 58.8782689,62.9064793 53.0171076,61.7441568 C47.1559463,60.5818342 43.2653657,54.4460922 44.3285915,48.0398987 C45.3918173,41.6326729 51.0052366,37.3808019 56.8663979,38.5431245 L56.8663979,38.5431245 Z M42.6893657,15.43706 C40.1303979,16.6561568 37.3783979,16.14106 36.5433011,14.2881568 C35.7071721,12.4352535 37.1048495,9.94544708 39.662785,8.7263503 C42.2217527,7.50828579 44.9737527,8.0223503 45.8098818,9.87525353 C46.6449786,11.7281568 45.2483334,14.2189955 42.6893657,15.43706 L42.6893657,15.43706 Z M37.9574947,21.8102213 C39.1022689,23.6961568 38.2300108,27.2316406 36.0096237,29.7069955 C33.7892366,32.181318 31.0609786,32.6582213 29.9172366,30.7712535 C28.7734947,28.8842858 29.6457527,25.3488019 31.8661398,22.8744793 C34.0865269,20.4001568 36.8137527,19.9232535 37.9574947,21.8102213 L37.9574947,21.8102213 Z M28.682656,11.4504793 C27.2571076,11.1335761 26.2207205,9.49125353 26.3693657,7.78286643 C26.5169786,6.07344708 27.7928495,4.94518901 29.2183979,5.26209224 C30.6439463,5.57796321 31.6793011,7.22028579 31.5316882,8.92970514 C31.3840753,10.6380922 30.1082044,11.7673826 28.682656,11.4504793 L28.682656,11.4504793 Z M32.1458818,45.7544793 C34.6945269,48.5715116 35.1445915,51.9872535 33.1523334,53.3828664 C31.1590431,54.7784793 27.4790431,53.6264793 24.9303979,50.8104793 C22.382785,47.9934471 21.9327205,44.5777051 23.9260108,43.1820922 C25.9182689,41.7854471 29.5982689,42.9374471 32.1458818,45.7544793 L32.1458818,45.7544793 Z M1.10278501,38.4956406 C-3.26573112,34.7537051 -2.87037628,26.5875116 1.98433339,20.2556406 C6.84007533,13.9227374 14.3177527,11.8220922 18.6862689,15.5640277 C23.054785,19.3049309 22.6594302,27.4721568 17.8036882,33.8040277 C12.9489786,40.1369309 5.47130114,42.2375761 1.10278501,38.4956406 L1.10278501,38.4956406 Z M40.1479463,36.7015761 C41.5734947,37.0184793 42.6098818,38.6608019 42.4612366,40.369189 C42.3136237,42.0786084 41.0377527,43.2068664 39.6122044,42.8909955 C38.186656,42.5740922 37.1513011,40.9317697 37.298914,39.2223503 C37.4465269,37.5139632 38.7223979,36.3846729 40.1479463,36.7015761 L40.1479463,36.7015761 Z M89.0439463,36.0729309 C90.4694947,36.3898342 91.5058818,38.0321568 91.3582689,39.7405439 C91.2096237,41.4499632 89.934785,42.5782213 88.5092366,42.261318 C87.082656,41.9454471 86.0473011,40.3031245 86.194914,38.5937051 C86.3435592,36.8842858 87.6183979,35.7560277 89.0439463,36.0729309 L89.0439463,36.0729309 Z" id="path-1" stroke="none" fill-opacity="0.13" fill="#000000" fill-rule="evenodd" sketch:type="MSShapeGroup" mask="url(#mask-4)"></path>
                </g>
            </g>
            <g id="earth" mask="url(#mask-2)">
                <g transform="translate(38.000000, 23.000000)">
                    <mask id="mask-6" sketch:name="ellipse-1" fill="white">
                        <use xlink:href="#path-5"></use>
                    </mask>
                    <use id="ellipse-1" stroke="none" fill="#80CEFB" fill-rule="evenodd" sketch:type="MSShapeGroup" xlink:href="#path-5"></use>
                    <path d="M102.137796,90.1842191 C72.1541599,95.8946539 88.6187053,79.6946539 88.6187053,79.6946539 C88.6187053,79.6946539 91.8887053,68.868567 91.3214326,63.9616104 C90.7541599,59.0546539 71.8377962,64.1598713 75.0968871,74.4511757 C78.375069,84.80248 66.945069,94.3998713 58.8723417,90.1842191 C50.8023417,85.968567 48.9505235,77.9494365 50.7614326,66.5833496 C52.5696144,55.2172626 65.335978,51.9172626 75.0968871,48.228567 C84.8605235,44.5372626 91.8887053,47.7981322 91.3214326,42.98248 C90.7541599,38.1668278 87.0614326,32.1929148 80.505069,35.1146539 C73.9487053,38.0390017 61.3132508,39.2155235 61.5777962,29.8711757 C61.8423417,20.5268278 78.2114326,6.4398713 85.9132508,3.64595826 C93.6177962,0.854653912 123.770524,35.1146539 123.770524,35.1146539 C123.770524,35.1146539 132.12416,84.4737843 102.137796,90.1842191 L102.137796,90.1842191 Z M21.015069,48.228567 C15.4868871,62.1329148 15.8714326,66.8337843 18.3123417,69.2050887 C20.7532508,71.5790017 13.4577962,73.4937843 7.49597805,74.4511757 C1.53415987,75.4059583 4.91325078,85.3998713 10.1987053,82.3190017 C15.4868871,79.2355235 19.0296144,80.5711757 18.3123417,87.56248 C17.595069,94.5537843 20.5132508,96.4659583 26.4232508,103.295523 C32.335978,110.127697 8.02506896,106.911176 -0.617658315,98.0520452 C-9.25765832,89.1929148 -25.1712947,32.9807409 -3.32038559,22.0033496 C8.22688714,16.2042191 18.285069,16.4572626 29.1287053,19.3816104 C39.9723417,22.3059583 42.4077962,24.5546539 37.2396144,32.4929148 C32.0741599,40.4311757 26.545978,34.3216104 21.015069,48.228567 L21.015069,48.228567 Z" id="path-1" stroke="none" fill="#5EA823" fill-rule="evenodd" sketch:type="MSShapeGroup" mask="url(#mask-6)"></path>
                    <path d="M102.652157,110.174202 C89.212157,120.874539 53.7712479,127.642537 48.5703388,124.27116 C43.372157,120.896978 49.8603388,114.395436 53.9785206,110.174202 C58.0994297,105.952968 67.2112479,120.254677 70.2030661,115.811863 C73.1976115,111.36905 113.53943,101.504545 102.652157,110.174202 L102.652157,110.174202 Z M67.5003388,-2.60707134 C59.7248843,-1.64221787 63.5457933,2.03488358 62.092157,8.67105599 C60.6385206,15.3072284 57.1912479,19.3601739 51.2757933,14.3115221 C45.3603388,9.26006538 19.3367024,18.9057953 26.9376115,5.85222536 C39.4012479,-15.548449 91.8357933,-8.2447326 91.8357933,-8.2447326 C92.7603388,9.24604134 75.2730661,-3.57192481 67.5003388,-2.60707134 L67.5003388,-2.60707134 Z" id="path-1" stroke="none" fill="#FFFFFF" fill-rule="evenodd" sketch:type="MSShapeGroup" mask="url(#mask-6)"></path>
                </g>
            </g>
        </g>
    </g>
</svg>