<?xml version="1.0" encoding="UTF-8" standalone="no"?>
<svg width="1000px" height="691px" viewBox="0 0 1000 691" version="1.1" xmlns="http://www.w3.org/2000/svg" xmlns:xlink="http://www.w3.org/1999/xlink" xmlns:sketch="http://www.bohemiancoding.com/sketch/ns">
    <!-- Generator: Sketch 3.2.2 (9983) - http://www.bohemiancoding.com/sketch -->
    <title>dummyslide</title>
    <desc>Created with Sketch.</desc>
    <defs>
        <rect id="path-1" x="0" y="0" width="1000" height="691"></rect>
        <ellipse id="path-3" cx="59.7402597" cy="59.7481203" rx="59.7402597" ry="59.7481203"></ellipse>
        <ellipse id="path-5" cx="770.12987" cy="306.573281" rx="770.12987" ry="305.975537"></ellipse>
        <linearGradient x1="49.056047%" y1="98.8729763%" x2="49.056047%" y2="-1.26197253%" id="linearGradient-7">
            <stop stop-color="#D75348" offset="0%"></stop>
            <stop stop-color="#E2574C" offset="100%"></stop>
        </linearGradient>
        <linearGradient x1="49.9609056%" y1="101.40922%" x2="49.9609056%" y2="1.35212293%" id="linearGradient-8">
            <stop stop-color="#D75348" offset="0%"></stop>
            <stop stop-color="#E2574C" offset="100%"></stop>
        </linearGradient>
        <path id="path-9" d="M58.9299846,60.9476363 C42.0023464,60.9476363 38.9067668,77.8044142 38.9067668,77.8044142 L28.9952754,88.763219 L0.196533419,86.1485941 L0.196533419,98.856261 C0.196533419,98.856261 30.6154873,112.740875 35.4735813,107.487491 L50.5303836,99.7027133 L55.2231826,95.1377966 L53.4516855,127.166428 L52.4153942,144.913124 L51.5473682,166.616328 L52.6672134,167.727543 L52.6672104,174.037599 C52.6672104,174.037599 57.6337326,205.114859 58.0975277,211.95804 C58.0975277,212.845301 55.0172333,214.803819 55.8747216,215.103123 C56.1140329,215.186654 58.0975277,217.814397 58.0975277,217.814397 C58.0975277,217.814397 57.4616819,219.349883 58.9299843,223.471015 C54.5181378,230.250204 58.5551795,234.320322 66.2812454,234.320322 C79.0955468,234.320322 75.9672509,227.15835 74.8740641,223.471015 C75.9672509,220.134915 75.7602696,217.814397 75.7602696,217.814397 L77.3219641,214.390443 L74.8740641,211.95804 L79.5081698,169.35048 L85.5354657,161.08746 L90.9722625,169.155183 L95.6042841,211.95804 L93.3003013,215.103123 L95.0900999,217.814397 C95.0900999,217.814397 96.4521775,221.39337 96.7191116,223.471015 C93.3003013,227.618349 92.142788,234.261278 103.863501,234.261278 C115.378586,234.601274 114.779328,228.214456 111.969098,224.224013 C109.288543,218.567395 112.77267,217.814397 112.77267,217.814397 L114.440224,215.103123 C114.440224,215.103123 111.969098,212.883984 111.969098,211.95804 L115.548209,174.037596 L116.335541,167.397514 L118.303871,165.969874 L118.880994,131.485525 L118.483962,96.3374084 C118.483962,96.3374084 121.5559,101.899135 123.917899,100.92265 C127.067237,106.856495 122.958966,120.058971 122.958966,120.058971 L118.880994,125.061825 L118.880994,130.749474 L119.57216,138.843709 C119.57216,138.843709 127.689549,135.323261 128.704546,135.646094 C129.329222,135.844781 136.715412,128.261424 136.715412,128.261424 L138.486909,121.035452 C138.486909,121.035452 146.37644,103.134695 140.845545,86.3334878 C135.623487,71.2897991 126.433695,62.3274557 114.440224,62.3274557 C114.440224,62.3274557 69.1653024,60.9476363 58.9299846,60.9476363 Z"></path>
        <path id="path-11" d="M180.924991,0.0645670705 C261.687803,0.0645670709 276.047708,53.7721337 250.885139,113.048238 C332.004637,132.905098 317.867634,222.765802 317.867634,222.765802 C317.867634,222.765802 325.503387,236.344734 323.090973,238.757164 C320.678558,241.169593 313.914825,227.237129 313.914825,227.237129 C313.914825,227.237129 313.914825,245.305183 310.462524,243.582023 C307.010223,241.858863 310.462524,227.237129 310.462524,227.237129 C310.462524,227.237129 300.00058,236.689369 298.277405,233.587669 C296.554229,230.485969 306.086792,223.438914 310.462535,218.727115 C317.867625,132.568532 249.202149,127.520178 249.202149,127.520178 C250.885139,232.86251 294.305958,251.036593 302.720831,274.595565 C297.806937,285.404915 263.675755,289.067515 236.748127,289.067515 C218.571966,299.500779 207.682334,309.18243 184.575832,312.963063 C167.409462,309.182438 145.194162,299.837354 122.305673,285.365404 C111.871206,279.980494 96.0512233,284.019161 83.5971917,287.048182 C68.7869913,287.048182 55.6597689,279.980494 55.6597689,266.854766 C55.6597689,245.315128 75.5188983,245.315128 98.407392,216.371226 C115.020563,163.436645 109.851641,140.33388 109.851641,125.86193 C43.2057359,134.275849 46.4624891,183.319539 62.2824758,207.551631 C68.3233068,211.402854 73.0819108,213.398323 73.9541776,218.141441 C69.8925664,219.895317 61.5574777,212.500373 61.5574777,212.500373 C61.5574777,212.500373 70.4047639,234.182456 65.7942064,235.054725 C61.1836488,235.926994 56.4484813,214.618736 56.4484813,214.618736 C56.4484813,214.618736 51.77585,231.591697 50.3833458,230.544319 C48.9908416,229.49694 46.7889916,219.667685 51.8379237,213.273109 C54.1940919,209.907533 12.2389539,127.881277 109.851641,113.07277 C91.5229889,66.4732696 102.206579,0.0645670708 180.924991,0.0645670705 Z"></path>
        <path id="path-13" d="M98.8516414,85.8619295 C32.2057359,94.2758495 35.4624891,143.319539 51.2824758,167.551631 C57.3233068,171.402854 62.0819108,173.398323 62.9541776,178.141441 C58.8925664,179.895317 50.5574777,172.500373 50.5574777,172.500373 C50.5574777,172.500373 59.4047639,194.182456 54.7942064,195.054725 C50.1836488,195.926994 45.4484813,174.618736 45.4484813,174.618736 C45.4484813,174.618736 40.77585,191.591697 39.3833458,190.544319 C37.9908416,189.49694 35.7889916,179.667685 40.8379237,173.273109 C43.1940919,169.907533 1.23895387,87.8812774 98.8516406,73.0727702 C98.8516385,85.8619303 98.8516385,77.8283888 98.8516414,85.8619295 Z"></path>
        <path id="path-15" d="M0.693229353,17.2196103 C24.2646968,22.3618864 47.8946039,23.8486318 73.5159508,0.227982032 C77.9445313,62.2209886 48.9790222,61.6431719 48.9790222,61.6431719 C48.9790222,61.6431719 9.12181425,76.7843209 0.693229353,17.2196103 Z"></path>
        <path id="path-17" d="M200.23453,191.067318 C200.23453,191.067318 149.25098,196.473877 124.823822,162.657422 C124.459037,162.709602 122.876488,161.333249 120.686943,162.041623 C118.497398,162.749997 109.140071,164.486194 101.819273,164.486194 C38.5579239,164.486194 0,128.11186 0,82.6266865 C0,37.1430818 38.5579239,0.269910133 101.819273,0.269910133 C165.079053,0.269910133 215.162,37.1430818 215.162,82.6266865 C215.162,108.382689 199.677652,131.377832 173.926355,146.479424 C168.094038,149.899126 167.43049,175.568852 200.23453,191.067318 Z"></path>
    </defs>
    <g id="Page-1" stroke="none" stroke-width="1" fill="none" fill-rule="evenodd" sketch:type="MSPage">
        <g id="dummyslide" sketch:type="MSLayerGroup">
            <mask id="mask-2" sketch:name="background 6" fill="white">
                <use xlink:href="#path-1"></use>
            </mask>
            <use id="background-6" fill="#2C3652" sketch:type="MSShapeGroup" xlink:href="#path-1"></use>
            <g id="stars" mask="url(#mask-2)" sketch:type="MSShapeGroup">
                <g transform="translate(70.129870, 29.977444)">
                    <ellipse id="Oval-11" fill="#D8D8D8" cx="459.74026" cy="286.947368" rx="2.5974026" ry="2.59774436"></ellipse>
                    <ellipse id="Oval-27" fill="#D8D8D8" cx="589.61039" cy="494.766917" rx="2.5974026" ry="2.59774436"></ellipse>
                    <ellipse id="Oval-12" opacity="0.5" fill="#D8D8D8" cx="528.571429" cy="316.821429" rx="1.2987013" ry="1.29887218"></ellipse>
                    <ellipse id="Oval-13" opacity="0.5" fill="#D8D8D8" cx="502.597403" cy="236.291353" rx="1.2987013" ry="1.29887218"></ellipse>
                    <ellipse id="Oval-16" fill="#D8D8D8" cx="381.818182" cy="520.744361" rx="2.5974026" ry="2.59774436"></ellipse>
                    <ellipse id="Oval-15" opacity="0.5" fill="#D8D8D8" cx="320.779221" cy="550.618421" rx="1.2987013" ry="1.29887218"></ellipse>
                    <ellipse id="Oval-17" opacity="0.5" fill="#D8D8D8" cx="232.467532" cy="566.204887" rx="1.2987013" ry="1.29887218"></ellipse>
                    <ellipse id="Oval-18" opacity="0.5" fill="#D8D8D8" cx="76.6233766" cy="488.272556" rx="1.2987013" ry="1.29887218"></ellipse>
                    <ellipse id="Oval-19" opacity="0.5" fill="#D8D8D8" cx="151.948052" cy="431.12218" rx="1.2987013" ry="1.29887218"></ellipse>
                    <ellipse id="Oval-28" opacity="0.5" fill="#D8D8D8" cx="749.350649" cy="379.167293" rx="1.2987013" ry="1.29887218"></ellipse>
                    <ellipse id="Oval-29" opacity="0.5" fill="#D8D8D8" cx="645.454545" cy="327.212406" rx="1.2987013" ry="1.29887218"></ellipse>
                    <ellipse id="Oval-30" opacity="0.5" fill="#D8D8D8" cx="567.532468" cy="405.144737" rx="1.2987013" ry="1.29887218"></ellipse>
                    <ellipse id="Oval-31" opacity="0.5" fill="#D8D8D8" cx="515.584416" cy="405.144737" rx="1.2987013" ry="1.29887218"></ellipse>
                    <ellipse id="Oval-32" opacity="0.5" fill="#D8D8D8" cx="528.571429" cy="389.558271" rx="1.2987013" ry="1.29887218"></ellipse>
                    <ellipse id="Oval-33" opacity="0.5" fill="#D8D8D8" cx="507.792208" cy="379.167293" rx="1.2987013" ry="1.29887218"></ellipse>
                    <ellipse id="Oval-34" opacity="0.5" fill="#D8D8D8" cx="380.519481" cy="293.441729" rx="1.2987013" ry="1.29887218"></ellipse>
                    <ellipse id="Oval-35" opacity="0.5" fill="#D8D8D8" cx="484.415584" cy="59.6447368" rx="1.2987013" ry="1.29887218"></ellipse>
                    <ellipse id="Oval-36" opacity="0.5" fill="#D8D8D8" cx="466.233766" cy="28.4718045" rx="1.2987013" ry="1.29887218"></ellipse>
                    <ellipse id="Oval-37" opacity="0.5" fill="#D8D8D8" cx="440.25974" cy="80.4266917" rx="1.2987013" ry="1.29887218"></ellipse>
                    <ellipse id="Oval-38" opacity="0.5" fill="#D8D8D8" cx="440.25974" cy="184.336466" rx="1.2987013" ry="1.29887218"></ellipse>
                    <ellipse id="Oval-39" opacity="0.5" fill="#D8D8D8" cx="650.649351" cy="49.2537594" rx="1.2987013" ry="1.29887218"></ellipse>
                    <ellipse id="Oval-40" opacity="0.5" fill="#D8D8D8" cx="762.337662" cy="23.2763158" rx="1.2987013" ry="1.29887218"></ellipse>
                    <ellipse id="Oval-45" opacity="0.5" fill="#D8D8D8" cx="788.311688" cy="412.93797" rx="1.2987013" ry="1.29887218"></ellipse>
                    <ellipse id="Oval-46" opacity="0.5" fill="#D8D8D8" cx="736.363636" cy="490.870301" rx="1.2987013" ry="1.29887218"></ellipse>
                    <ellipse id="Oval-47" opacity="0.5" fill="#D8D8D8" cx="575.324675" cy="571.400376" rx="1.2987013" ry="1.29887218"></ellipse>
                    <ellipse id="Oval-48" opacity="0.5" fill="#D8D8D8" cx="497.402597" cy="623.355263" rx="1.2987013" ry="1.29887218"></ellipse>
                    <ellipse id="Oval-49" opacity="0.5" fill="#D8D8D8" cx="549.350649" cy="649.332707" rx="1.2987013" ry="1.29887218"></ellipse>
                    <ellipse id="Oval-50" opacity="0.5" fill="#D8D8D8" cx="531.168831" cy="132.381579" rx="1.2987013" ry="1.29887218"></ellipse>
                    <ellipse id="Oval-41" opacity="0.5" fill="#D8D8D8" cx="918.181818" cy="49.2537594" rx="1.2987013" ry="1.29887218"></ellipse>
                    <ellipse id="Oval-43" opacity="0.5" fill="#D8D8D8" cx="928.571429" cy="116.795113" rx="1.2987013" ry="1.29887218"></ellipse>
                    <ellipse id="Oval-44" opacity="0.5" fill="#D8D8D8" cx="928.571429" cy="168.75" rx="1.2987013" ry="1.29887218"></ellipse>
                    <ellipse id="Oval-57" opacity="0.5" fill="#D8D8D8" cx="668.831169" cy="168.75" rx="1.2987013" ry="1.29887218"></ellipse>
                    <ellipse id="Oval-58" opacity="0.5" fill="#D8D8D8" cx="746.753247" cy="116.795113" rx="1.2987013" ry="1.29887218"></ellipse>
                    <ellipse id="Oval-59" opacity="0.5" fill="#D8D8D8" cx="720.779221" cy="90.8176692" rx="1.2987013" ry="1.29887218"></ellipse>
                    <ellipse id="Oval-60" opacity="0.5" fill="#D8D8D8" cx="746.753247" cy="83.0244361" rx="1.2987013" ry="1.29887218"></ellipse>
                    <ellipse id="Oval-61" opacity="0.5" fill="#D8D8D8" cx="738.961039" cy="101.208647" rx="1.2987013" ry="1.29887218"></ellipse>
                    <ellipse id="Oval-62" opacity="0.5" fill="#D8D8D8" cx="271.428571" cy="23.2763158" rx="1.2987013" ry="1.29887218"></ellipse>
                    <ellipse id="Oval-63" opacity="0.5" fill="#D8D8D8" cx="35.0649351" cy="18.0808271" rx="1.2987013" ry="1.29887218"></ellipse>
                    <ellipse id="Oval-20" opacity="0.5" fill="#D8D8D8" cx="100" cy="509.054511" rx="1.2987013" ry="1.29887218"></ellipse>
                    <ellipse id="Oval-21" opacity="0.5" fill="#F1F5BB" cx="118.181818" cy="592.182331" rx="1.2987013" ry="1.29887218"></ellipse>
                    <ellipse id="Oval-51" opacity="0.5" fill="#F1F5BB" cx="66.2337662" cy="332.407895" rx="1.2987013" ry="1.29887218"></ellipse>
                    <ellipse id="Oval-52" opacity="0.5" fill="#F1F5BB" cx="29.8701299" cy="316.821429" rx="1.2987013" ry="1.29887218"></ellipse>
                    <ellipse id="Oval-53" opacity="0.5" fill="#F1F5BB" cx="22.0779221" cy="306.430451" rx="1.2987013" ry="1.29887218"></ellipse>
                    <ellipse id="Oval-54" opacity="0.5" fill="#F1F5BB" cx="37.6623377" cy="306.430451" rx="1.2987013" ry="1.29887218"></ellipse>
                    <ellipse id="Oval-55" opacity="0.5" fill="#F1F5BB" cx="89.6103896" cy="90.8176692" rx="1.2987013" ry="1.29887218"></ellipse>
                    <ellipse id="Oval-56" opacity="0.5" fill="#F1F5BB" cx="167.532468" cy="38.862782" rx="1.2987013" ry="1.29887218"></ellipse>
                    <ellipse id="Oval-22" opacity="0.5" fill="#D8D8D8" cx="170.12987" cy="514.25" rx="1.2987013" ry="1.29887218"></ellipse>
                    <ellipse id="Oval-14" opacity="0.5" fill="#D8D8D8" cx="346.753247" cy="470.088346" rx="1.2987013" ry="1.29887218"></ellipse>
                    <ellipse id="Oval-23" opacity="0.5" fill="#D8D8D8" cx="346.753247" cy="625.953008" rx="1.2987013" ry="1.29887218"></ellipse>
                    <ellipse id="Oval-24" opacity="0.5" fill="#D8D8D8" cx="203.896104" cy="641.539474" rx="1.2987013" ry="1.29887218"></ellipse>
                    <ellipse id="Oval-25" opacity="0.5" fill="#D8D8D8" cx="385.714286" cy="303.832707" rx="1.2987013" ry="1.29887218"></ellipse>
                    <path d="M210.344701,474.069823 L213.13214,471.340558 L215.672565,474.069823 L213.13214,476.734105 L210.344701,474.069823 Z" id="Path-47" fill="#D8D8D8"></path>
                    <path d="M511.847655,58.4307252 C514.381639,58.4307252 517.028244,55.7014603 517.028244,53.1671432 C517.028244,55.7014603 519.709502,58.4307252 522.178512,58.4307252 C519.709502,58.4307252 517.028244,60.7051116 517.028244,63.3044117 C517.028244,60.7051116 514.381639,58.4307252 511.847655,58.4307252 Z" id="Path-48" fill="#D8D8D8"></path>
                    <path d="M136.600902,199.227718 C139.134886,199.227718 141.781491,196.498453 141.781491,193.964136 C141.781491,196.498453 144.462749,199.227718 146.931759,199.227718 C144.462749,199.227718 141.781491,201.502104 141.781491,204.101404 C141.781491,201.502104 139.134886,199.227718 136.600902,199.227718 Z" id="Path-55" fill="#D8D8D8"></path>
                    <path d="M641.717785,655.911928 C644.251769,655.911928 646.898374,653.182663 646.898374,650.648346 C646.898374,653.182663 649.579632,655.911928 652.048642,655.911928 C649.579632,655.911928 646.898374,658.186315 646.898374,660.785615 C646.898374,658.186315 644.251769,655.911928 641.717785,655.911928 Z" id="Path-53" fill="#D8D8D8"></path>
                    <path d="M910.716651,329.473832 C913.228242,332.736491 918.670014,330.561377 916.297958,326.890911 C913.925902,323.220444 883.228712,299.974157 883.228712,299.974157 C883.228712,299.974157 908.205059,326.211173 910.716651,329.473832 Z" id="Path-49" opacity="0.5" fill="#F1F5BB"></path>
                    <path d="M27.5997675,95.6768393 C30.1113593,98.9394984 35.5531308,96.7643849 33.181075,93.0939184 C30.8090191,89.423452 0.111828542,66.1771643 0.111828542,66.1771643 C0.111828542,66.1771643 25.0881758,92.4141802 27.5997675,95.6768393 Z" id="Path-56" opacity="0.2" fill="#F1F5BB"></path>
                    <path d="M547.493805,588.471899 C550.649351,586.025132 545.767481,588.621278 550.649351,586.025132 C545.303251,582.188194 493.744143,526.028979 493.744143,526.028979 C493.744143,526.028979 545.022222,583.46418 547.493805,588.471899 Z" id="Path-50" opacity="0.3" fill="#F0F1DF"></path>
                    <path d="M573.467831,598.862876 C576.623377,596.41611 571.741507,599.012256 576.623377,596.41611 C571.277277,592.579171 519.718169,536.419957 519.718169,536.419957 C519.718169,536.419957 570.996248,593.855157 573.467831,598.862876 Z" id="Path-51" opacity="0.3" fill="#F0F1DF"></path>
                    <path d="M513.831893,58.0852833 C517.528182,61.4255546 514.370331,58.0815075 517.713938,60.8682134 C526.072955,53.6227785 568.374494,0.441691243 568.374494,0.441691243 C568.374494,0.441691243 519.385741,51.207633 513.831893,58.0852833 Z" id="Path-58" opacity="0.1" fill="#F2F5BB"></path>
                </g>
            </g>
            <g id="earth-2" mask="url(#mask-2)">
                <g transform="translate(846.753247, 57.150376)">
                    <mask id="mask-4" sketch:name="ellipse-1" fill="white">
                        <use xlink:href="#path-3"></use>
                    </mask>
                    <use id="ellipse-1" stroke="none" fill="#80CEFB" fill-rule="evenodd" sketch:type="MSShapeGroup" xlink:href="#path-3"></use>
                    <path d="M101.695641,89.8056262 C71.8418042,95.4920886 88.2350746,79.3600962 88.2350746,79.3600962 C88.2350746,79.3600962 91.4909187,68.5794571 90.9261017,63.6930999 C90.3612847,58.8067428 71.5268101,63.8905285 74.7717924,74.13863 C78.0357829,84.4464796 66.6552635,94.0035811 58.6174831,89.8056262 C50.5824181,85.6076713 48.7386165,77.6222052 50.5416861,66.303833 C52.3420403,54.9854608 65.0531383,51.6993142 74.7717924,48.0261037 C84.4931619,44.3502954 91.4909187,47.5974759 90.9261017,42.8020398 C90.3612847,38.0066037 86.6845433,32.0577691 80.1565622,34.9672428 C73.6285811,37.8793142 61.0478254,39.0508969 61.3112257,29.7457766 C61.5746259,20.4406563 77.872855,6.41283676 85.5413319,3.63065255 C93.2125244,0.85106608 123.23472,34.9672428 123.23472,34.9672428 C123.23472,34.9672428 131.552194,84.1191638 101.695641,89.8056262 L101.695641,89.8056262 Z M20.9240946,48.0261037 C15.4198443,61.8720811 15.8027251,66.5532165 18.2330675,68.9145661 C20.6634099,71.2785134 13.3995374,73.1852578 7.46352793,74.13863 C1.52751848,75.0894044 4.89198129,85.0413631 10.1545551,81.973427 C15.4198443,78.9028931 18.9472351,80.2329383 18.2330675,87.1948931 C17.5188998,94.156848 20.4244488,96.0609947 26.3088644,102.861889 C32.1959955,109.665382 7.9903284,106.462363 -0.61498447,97.6404232 C-9.21758187,88.8184834 -25.062328,32.8422879 -3.30601162,21.9109796 C8.19127291,16.1361939 18.2059128,16.3881751 29.002607,19.3002465 C39.7993012,22.212318 42.2242127,24.4515736 37.078404,32.3565097 C31.9353107,40.2614458 26.4310604,34.1775285 20.9240946,48.0261037 L20.9240946,48.0261037 Z" id="path-1" stroke="none" fill="#5EA823" fill-rule="evenodd" sketch:type="MSShapeGroup" mask="url(#mask-4)"></path>
                    <path d="M102.207775,109.711691 C88.8259572,120.367108 53.5384719,127.106695 48.3600776,123.74947 C43.1843987,120.389453 49.6444932,113.915204 53.7448474,109.711691 C57.847917,105.508178 66.9202901,119.749848 69.8991567,115.325686 C72.8807388,110.901523 113.047917,101.078429 102.207775,109.711691 L102.207775,109.711691 Z M67.2081295,-2.59612687 C59.466335,-1.63532385 63.2707033,2.02634115 61.8233598,8.63465494 C60.3760162,15.2429687 56.9436667,19.2789 51.0538202,14.2514424 C45.1639737,9.22119167 19.2529938,18.8264288 26.8209985,5.82765775 C39.2306797,-15.4831767 91.4382358,-8.21012126 91.4382358,-8.21012126 C92.3587789,9.20722651 74.9472086,-3.55692989 67.2081295,-2.59612687 L67.2081295,-2.59612687 Z" id="path-1" stroke="none" fill="#FFFFFF" fill-rule="evenodd" sketch:type="MSShapeGroup" mask="url(#mask-4)"></path>
                </g>
            </g>
            <g id="moon" mask="url(#mask-2)">
                <g transform="translate(-222.077922, 514.251182)">
                    <mask id="mask-6" sketch:name="circle-1" fill="white">
                        <use xlink:href="#path-5"></use>
                    </mask>
                    <use id="circle-1" stroke="none" fill="#F2C668" fill-rule="evenodd" sketch:type="MSShapeGroup" xlink:href="#path-5"></use>
                    <path d="M1131.08175,39.4269282 C1109.73356,69.5408537 1058.65915,71.322631 1016.99463,43.406021 C975.336942,15.489411 958.867942,-31.554547 980.222974,-61.6684725 C1001.57117,-91.782398 1052.64558,-93.5641754 1094.3101,-65.6412693 C1135.96779,-37.7246593 1152.43679,9.3130027 1131.08175,39.4269282 L1131.08175,39.4269282 Z M1200.13185,110.600682 C1198.56012,126.888519 1184.9544,137.642143 1169.74961,134.626343 C1154.54483,131.604248 1143.49488,115.958606 1145.07345,99.6707686 C1146.65201,83.3829314 1160.2509,72.6230111 1175.46251,75.6451069 C1190.6673,78.6609067 1201.71041,94.3128446 1200.13185,110.600682 L1200.13185,110.600682 Z M803.576617,38.6676636 C794.139401,36.7410775 787.278456,26.7240891 788.255663,16.2978586 C789.239703,5.87162804 797.679211,-1.00993595 807.116427,0.922946157 C816.560476,2.85582827 823.414588,12.8665206 822.437381,23.2927512 C821.453341,33.7189817 813.013833,40.6005457 803.576617,38.6676636 L803.576617,38.6676636 Z M717.306799,210.611413 C685.824357,208.640755 661.483037,187.769405 662.952263,163.982993 C664.414656,140.202877 691.127238,122.51732 722.616514,124.481682 C754.098957,126.452341 778.440277,147.32369 776.977884,171.110102 C775.508658,194.890219 748.796075,212.575775 717.306799,210.611413 L717.306799,210.611413 Z M1284.44177,115.160123 C1323.24301,122.243161 1348.99889,159.66678 1341.96027,198.746257 C1334.92165,237.825733 1297.76048,263.759093 1258.95924,256.66976 C1220.158,249.580427 1194.40212,212.156807 1201.44074,173.083626 C1208.47936,134.00415 1245.64053,108.07079 1284.44177,115.160123 L1284.44177,115.160123 Z M725.653902,99.1993519 C708.713382,106.634967 690.494977,103.493246 684.966586,92.1918673 C679.431362,80.8904882 688.68407,65.7044568 705.617757,58.2688419 C722.558276,50.839523 740.776681,53.9749474 746.311906,65.2763265 C751.840296,76.5777056 742.594422,91.7700331 725.653902,99.1993519 L725.653902,99.1993519 Z M675.367593,-21.3343209 C682.946067,-9.83146869 677.171667,11.7324441 662.472571,26.8303311 C647.773475,41.921922 629.712243,44.8306892 622.140603,33.321541 C614.568963,21.8123928 620.343363,0.248480031 635.042459,-14.8431109 C649.741555,-29.9347018 667.795953,-32.843469 675.367593,-21.3343209 L675.367593,-21.3343209 Z M414.616956,57.8453799 C405.17974,55.9124978 398.318795,45.8955094 399.302835,35.4755749 C400.280041,25.0493443 408.726384,18.1677804 418.163599,20.1006625 C427.600815,22.0272485 434.454926,32.0442369 433.47772,42.4704675 C432.500514,52.890402 424.054172,59.778262 414.616956,57.8453799 L414.616956,57.8453799 Z M512.998264,87.8144735 C529.870447,104.996347 532.849902,125.82992 519.661034,134.342157 C506.465332,142.854393 482.103512,135.828021 465.231328,118.652443 C448.365978,101.470569 445.386524,80.636996 458.582225,72.1247595 C471.771093,63.6062269 496.132914,70.6325997 512.998264,87.8144735 L512.998264,87.8144735 Z M263.335258,222.801443 C234.415419,199.978323 237.032692,150.170407 269.171161,111.550541 C301.316464,72.9243787 350.819137,60.1119517 379.738975,82.9350711 C408.658814,105.751894 406.041541,155.566107 373.896238,194.185973 C341.757769,232.812135 292.255097,245.624562 263.335258,222.801443 L263.335258,222.801443 Z M1059.38438,114.317796 C1068.8216,116.250678 1075.68254,126.267666 1074.6985,136.687601 C1073.7213,147.113831 1065.27496,153.995395 1055.83774,152.068809 C1046.40052,150.135927 1039.54641,140.118938 1040.52362,129.692708 C1041.50082,119.272773 1049.94717,112.384913 1059.38438,114.317796 L1059.38438,114.317796 Z M940.23872,144.657866 C949.675936,146.590748 956.53688,156.607737 955.559674,167.027671 C954.575634,177.453902 946.136126,184.335466 936.69891,182.402583 C927.25486,180.475997 920.400749,170.459009 921.377956,160.032778 C922.361995,149.606548 930.801504,142.724984 940.23872,144.657866 L940.23872,144.657866 Z" id="path-1-8" stroke="none" fill-opacity="0.13" fill="#000000" fill-rule="evenodd" sketch:type="MSShapeGroup" mask="url(#mask-6)"></path>
                </g>
            </g>
            <g id="rocket" mask="url(#mask-2)" sketch:type="MSShapeGroup">
                <g transform="translate(47.454545, 57.150376)">
                    <path d="M39.6188944,70.6282792 C42.3719247,73.1570933 43.20331,77.3187812 40.4502797,79.8475953 C37.6955899,82.3779382 29.3966722,85.1972448 26.6419824,82.6669019 C23.8889521,80.1365589 26.9572782,72.5118941 29.7103085,69.9815511 C32.4649983,67.4512082 36.8658641,68.0964074 39.6188944,70.6282792 L39.6188944,70.6282792 Z" id="path-1" fill="#EC9F25"></path>
                    <path d="M77.4232535,68.3760009 C77.4232535,68.3760009 74.9125032,88.4933741 73.115317,93.0586937 C71.8524743,96.2678719 54.7269332,104.192203 46.9241915,106.907544 C45.2381886,107.493115 43.7347254,105.740987 44.7469909,104.364969 C48.2733257,99.5733713 55.8221713,90.4213272 55.4255623,86.663271 C54.7767167,80.5033002 50.6131525,77.7864304 50.6131525,77.7864304 L77.4232535,68.3760009 L77.4232535,68.3760009 Z" id="path-1" fill="url(#linearGradient-7)"></path>
                    <path d="M42.3703857,36.8544975 C42.3703857,36.8544975 20.543618,39.1677355 15.5901548,40.823543 C12.1086252,41.9870421 3.50934672,57.7730185 0.565479473,64.9634734 C-0.0717499646,66.518373 1.82998164,67.9020349 3.32348813,66.9694009 C8.52255018,63.7204711 18.4527089,56.7624102 22.5299816,57.1278193 C29.2125935,57.7271513 32.1614391,61.5631818 32.1614391,61.5631818 L42.3703857,36.8544975 L42.3703857,36.8544975 Z" id="path-1" fill="url(#linearGradient-8)"></path>
                    <path d="M52.5426691,81.8286706 C43.0024816,73.0359199 41.1704469,71.3480053 40.8634484,71.0636284 C40.8634484,71.0636284 40.8551511,71.0575128 40.8352377,71.037637 C40.8269404,71.0299924 40.8169837,71.0223479 40.807027,71.0116455 C40.498369,70.7272686 38.6663344,69.0393541 29.1261468,60.2466034 C41.321457,25.2422518 71.6927413,10.7329136 73.0335782,10.3139928 C74.7212406,9.73147882 76.3176331,9.93788142 76.3176331,9.93788142 L91.7239823,24.1353223 L107.128672,38.3342921 C107.128672,38.3342921 107.352698,39.8066306 106.720447,41.3615302 C106.265757,42.596888 90.5225393,70.5896669 52.5426691,81.8286706 L52.5426691,81.8286706 Z" id="path-1" fill="#EBEBEB"></path>
                    <path d="M107.622525,38.5581155 C107.03342,38.0153531 105.30925,36.4895028 105.30925,36.4895028 L91.7515296,23.9952656 L78.195469,11.4994994 C78.195469,11.4994994 76.6538384,10.0302187 76.0647331,9.48745635 C95.823824,-1.32039521 111.548788,0.68706116 112.05658,0.739044036 C112.750231,0.807844902 114.524185,1.12432888 115.546407,2.06460738 C116.56697,3.00641479 116.910476,4.64234649 116.985152,5.28143009 C117.041573,5.74927597 119.34987,20.3472908 107.622525,38.5581155 L107.622525,38.5581155 Z" id="path-1" fill="#E0564B"></path>
                    <path d="M51.6293397,79.5107935 C50.2268484,80.8487135 46.1132088,81.71988 44.6403415,80.3164227 L29.8513463,66.2019268 C28.3801546,64.7984696 29.380498,60.965337 30.7829893,59.627417 L51.6293397,79.5107935 Z" id="path-1" fill="#A6B0B7"></path>
                    <path d="M68.2238563,79.5909536 C66.8213649,80.9288735 62.7077254,81.80004 61.2348581,80.3965828 L29.8513463,50.9930056 C28.3801546,49.5895484 29.380498,45.7564158 30.7829893,44.4184958 L68.2238563,79.5909536 Z" id="path-1-3" fill="#DE564B"></path>
                    <path d="M85.4088394,30.5123119 C89.6155493,34.3926808 89.6155493,40.6856666 85.4088394,44.5660355 C81.2021294,48.4464043 74.3834425,48.4464043 70.1767326,44.5660355 C65.9700226,40.6856666 65.9700226,34.3926808 70.1767326,30.5123119 C74.3834425,26.6304142 81.2021294,26.6304142 85.4088394,30.5123119 L85.4088394,30.5123119 Z" id="path-1" fill="#324D5B"></path>
                    <path d="M81.9308748,33.6740222 C84.1990879,35.7649372 84.1990879,39.1515611 81.9308748,41.2424761 C79.6626618,43.3317448 75.9852459,43.3317448 73.7170328,41.2424761 C71.4488197,39.1515611 71.4488197,35.7649372 73.7170328,33.6740222 C75.9852459,31.5847535 79.6626618,31.5847535 81.9308748,33.6740222 L81.9308748,33.6740222 Z" id="path-1" fill="#CCD0D2"></path>
                </g>
            </g>
            <g id="astronaut" mask="url(#mask-2)">
                <g transform="translate(273.935065, 370.650376)">
                    <path d="M118.605883,248.45606 C144.071502,250.673874 166.37124,252.184201 167.458446,239.813933 C168.545652,227.443666 157.608956,221.67149 132.143336,219.453675 C106.677717,217.235861 60.4682501,222.662054 59.5860897,232.699308 C58.7039294,242.736562 93.1402632,246.238245 118.605883,248.45606 L118.605883,248.45606 Z" id="Oval-243" stroke="none" opacity="0.2" fill="#000000" fill-rule="evenodd" sketch:type="MSShapeGroup"></path>
                    <path d="M60.9299846,62.9476363 C44.0023464,62.9476363 40.9067668,79.8044142 40.9067668,79.8044142 L30.9952754,90.763219 L2.19653342,88.1485941 L2.19653342,100.856261 C2.19653342,100.856261 32.6154873,114.740875 37.4735813,109.487491 L52.5303836,101.702713 L57.2231826,97.1377966 L55.4516855,129.166428 L54.4153942,146.913124 L53.5473682,168.616328 L54.6672134,169.727543 L54.6672104,176.037599 C54.6672104,176.037599 59.6337326,207.114859 60.0975277,213.95804 C60.0975277,214.845301 57.0172333,216.803819 57.8747216,217.103123 C58.1140329,217.186654 60.0975277,219.814397 60.0975277,219.814397 C60.0975277,219.814397 59.4616819,221.349883 60.9299843,225.471015 C56.5181378,232.250204 60.5551795,236.320322 68.2812454,236.320322 C81.0955468,236.320322 77.9672509,229.15835 76.8740641,225.471015 C77.9672509,222.134915 77.7602696,219.814397 77.7602696,219.814397 L79.3219641,216.390443 L76.8740641,213.95804 L81.5081698,171.35048 L87.5354657,163.08746 L92.9722625,171.155183 L97.6042841,213.95804 L95.3003013,217.103123 L97.0900999,219.814397 C97.0900999,219.814397 98.4521775,223.39337 98.7191116,225.471015 C95.3003013,229.618349 94.142788,236.261278 105.863501,236.261278 C117.378586,236.601274 116.779328,230.214456 113.969098,226.224013 C111.288543,220.567395 114.77267,219.814397 114.77267,219.814397 L116.440224,217.103123 C116.440224,217.103123 113.969098,214.883984 113.969098,213.95804 L117.548209,176.037596 L118.335541,169.397514 L120.303871,167.969874 L120.880994,133.485525 L120.483962,98.3374084 C120.483962,98.3374084 123.5559,103.899135 125.917899,102.92265 C129.067237,108.856495 124.958966,122.058971 124.958966,122.058971 L120.880994,127.061825 L120.880994,132.749474 L121.57216,140.843709 C121.57216,140.843709 129.689549,137.323261 130.704546,137.646094 C131.329222,137.844781 138.715412,130.261424 138.715412,130.261424 L140.486909,123.035452 C140.486909,123.035452 148.37644,105.134695 142.845545,88.3334878 C137.623487,73.2897991 128.433695,64.3274557 116.440224,64.3274557 C116.440224,64.3274557 71.1653024,62.9476363 60.9299846,62.9476363 Z" id="Path-262" stroke="none" fill-opacity="0.2" fill="#000000" fill-rule="evenodd" sketch:type="MSShapeGroup"></path>
                    <rect id="Rectangle-23" stroke="#767676" stroke-width="2" fill="#5F5F5F" fill-rule="evenodd" sketch:type="MSShapeGroup" x="40.8484848" y="26.1227564" width="90.3581267" height="118.079289" rx="3"></rect>
                    <mask id="mask-10" sketch:name="Path 255" fill="white">
                        <use xlink:href="#path-9"></use>
                    </mask>
                    <use id="Path-255" stroke="none" fill="#FFFFFF" fill-rule="evenodd" sketch:type="MSShapeGroup" xlink:href="#path-9"></use>
                    <path d="M37.3333333,212.332396 L37.3333333,241.846968 L77.7828676,241.846968 L78.9834247,212.332396 L37.3333333,212.332396 Z" id="Path-259" stroke="none" fill="#535353" fill-rule="evenodd" sketch:type="MSShapeGroup" mask="url(#mask-10)"></path>
                    <path d="M91.1230801,211.674628 L84.9256198,239.321716 L125.375154,239.321716 L114.793621,211.674628 L91.1230801,211.674628 Z" id="Path-260" stroke="none" fill="#535353" fill-rule="evenodd" sketch:type="MSShapeGroup" mask="url(#mask-10)"></path>
                    <rect id="Rectangle-30" stroke="none" opacity="0.1" fill="#FFFFFF" fill-rule="evenodd" sketch:type="MSShapeGroup" mask="url(#mask-10)" x="61.1460055" y="220.833017" width="11.030303" height="1.68350168"></rect>
                    <rect id="Rectangle-31" stroke="none" opacity="0.1" fill="#FFFFFF" fill-rule="evenodd" sketch:type="MSShapeGroup" mask="url(#mask-10)" x="61.1460055" y="217.466014" width="11.030303" height="1.68350168"></rect>
                    <rect id="Rectangle-33" stroke="none" opacity="0.1" fill="#FFFFFF" fill-rule="evenodd" sketch:type="MSShapeGroup" mask="url(#mask-10)" x="98.4793388" y="220.833017" width="11.030303" height="1.68350168"></rect>
                    <rect id="Rectangle-32" stroke="none" opacity="0.1" fill="#FFFFFF" fill-rule="evenodd" sketch:type="MSShapeGroup" mask="url(#mask-10)" x="98.4793388" y="217.466014" width="11.030303" height="1.68350168"></rect>
                    <path d="M67.2947658,78.6024404 L106.964187,78.6024404 L106.964187,102.655629 L67.2947658,102.655629 L67.2947658,78.6024404 Z M53.4516855,126.708817 L51.9931024,148.582029 L49.0019137,166.158717 L50.9702437,168.111683 L50.7734107,173.579986 L48.4114146,173.970579 L55.3792918,212.251593 L78.550467,210.518709 L81.2051395,168.892869 L85.5354657,161.471601 L89.2752928,168.697572 L93.3649352,209.514547 L115.25725,209.514548 L117.306332,190.570784 L119.471495,173.970579 L118.093664,173.579986 L118.880996,166.939904 L120.849326,166.354014 L118.880998,129.972503 L53.4516855,126.708817 Z" id="Rectangle-24" stroke="#D8D8D8" stroke-width="1" fill="#EBEBEB" fill-rule="evenodd" sketch:type="MSShapeGroup" mask="url(#mask-10)"></path>
                    <ellipse id="Oval-241" stroke="none" opacity="0.2" fill="#FFFFFF" fill-rule="evenodd" sketch:type="MSShapeGroup" mask="url(#mask-10)" cx="103.939394" cy="228.114478" rx="6.36363636" ry="3.36700337"></ellipse>
                    <ellipse id="Oval-242" stroke="none" opacity="0.2" fill="#FFFFFF" fill-rule="evenodd" sketch:type="MSShapeGroup" mask="url(#mask-10)" cx="66.6060606" cy="228.114478" rx="6.36363636" ry="3.36700337"></ellipse>
                    <path d="M50.4490054,172.178239 L50.4490054,212.332396 L79.764505,212.332396 L80.6345999,174.12747 L50.4490054,172.178239 Z" id="Path-243" stroke="none" fill="#D8D8D8" fill-rule="evenodd" sketch:type="MSShapeGroup" mask="url(#mask-10)"></path>
                    <path d="M89.4793084,172.178239 L89.4793084,212.332396 L118.794808,212.332396 L119.847453,172.178239 L89.4793084,172.178239 Z" id="Path-261" stroke="none" fill="#D8D8D8" fill-rule="evenodd" sketch:type="MSShapeGroup" mask="url(#mask-10)"></path>
                    <path d="M125.038503,105.4987 L144.954824,86.2829201 C144.954824,86.2829201 143.276075,118.32568 135.510047,132.048778 L120.982308,121.789763 L125.038503,105.4987 Z M9.31379202,105.933476 L9.31379202,78.9637678 L37.916395,82.9819772 L54.7966197,102.001502 L38.8541853,114.324011 L9.31379202,105.933476 Z" id="Path-250" stroke="none" fill="#169EED" fill-rule="evenodd" sketch:type="MSShapeGroup" mask="url(#mask-10)"></path>
                    <ellipse id="Oval-171" stroke="none" opacity="0.7" fill="#FF4A4A" fill-rule="evenodd" sketch:type="MSShapeGroup" mask="url(#mask-10)" cx="97.046832" cy="88.4423812" rx="5.50964187" ry="5.46663376"></ellipse>
                    <ellipse id="Oval-172" stroke="none" fill="#2CF2F2" fill-rule="evenodd" sketch:type="MSShapeGroup" mask="url(#mask-10)" cx="76.1101928" cy="87.3490545" rx="2.20385675" ry="2.1866535"></ellipse>
                    <ellipse id="Oval-174" stroke="none" fill="#2CF2F2" fill-rule="evenodd" sketch:type="MSShapeGroup" mask="url(#mask-10)" cx="76.1101928" cy="93.909015" rx="2.20385675" ry="2.1866535"></ellipse>
                    <ellipse id="Oval-175" stroke="none" fill="#F6A623" fill-rule="evenodd" sketch:type="MSShapeGroup" mask="url(#mask-10)" cx="84.9256198" cy="93.909015" rx="2.20385675" ry="2.1866535"></ellipse>
                    <ellipse id="Oval-173" stroke="none" fill="#21FF78" fill-rule="evenodd" sketch:type="MSShapeGroup" mask="url(#mask-10)" cx="84.9256198" cy="87.3490545" rx="2.20385675" ry="2.1866535"></ellipse>
                    <rect id="Rectangle-25" stroke="none" fill="#D8D8D8" fill-rule="evenodd" sketch:type="MSShapeGroup" mask="url(#mask-10)" x="91.5371901" y="96.0956685" width="11.0192837" height="2.1866535"></rect>
                    <path d="M115.991694,61.7443662 C133.425158,64.8524891 139.515511,78.7665903 141.830894,86.0639226 C133.931355,86.7396019 126.697669,96.0876862 123.701292,101.898524 C109.216591,89.6686277 113.467854,67.9561957 115.991694,61.7443662 Z" id="Path-246" stroke="none" fill="#D8D8D8" fill-rule="evenodd" sketch:type="MSShapeGroup" mask="url(#mask-10)"></path>
                    <path d="M141.260297,85.8055104 C141.260297,85.8055104 141.459846,87.1035088 144.429752,91.19618 C136.487437,93.5039669 128.032943,102.079457 124.760818,109.215589 C124.760818,109.215589 124.188174,109.215589 121.021894,107.464995 C124.760818,97.5105495 130.520735,87.8302183 141.260297,85.8055104 Z" id="Path-244" stroke="none" fill="#848F8F" fill-rule="evenodd" sketch:type="MSShapeGroup" mask="url(#mask-10)"></path>
                    <path d="M135.553838,133.114649 C135.553838,133.114649 133.955264,130.49225 132.196342,135.223786 C125.826761,129.981205 125.078452,127.585441 117.754519,126.050057 C117.754519,126.050057 119.406423,125.362385 119.098588,121.778991 C126.654179,122.3227 131.189093,127.851909 135.150938,131.11614 L135.553838,133.114649 Z" id="Path-249" stroke="none" fill="#848F8F" fill-rule="evenodd" sketch:type="MSShapeGroup" mask="url(#mask-10)"></path>
                    <path d="M50.4490054,168.544559 C50.4490054,168.544559 51.1608006,169.801664 51.3795614,175.335593 C59.8251333,172.004808 72.9848453,173.754298 80.679111,177.734654 C80.679111,177.734654 81.174657,177.350512 82.7217631,173.711604 C72.7030993,167.605515 61.1223243,163.092357 50.4490054,168.544559 L50.4490054,168.544559 Z" id="Path-256" stroke="none" fill="#848F8F" fill-rule="evenodd" sketch:type="MSShapeGroup" mask="url(#mask-10)"></path>
                    <path d="M119.91877,174.493843 C111.473198,171.163057 98.3134861,172.912547 90.6192204,176.892903 C90.6192204,176.892903 90.1236744,176.508762 88.5765683,172.869853 C98.5952321,166.763764 110.176007,162.250606 120.849326,167.702808 C120.849326,167.702808 120.137531,168.959913 119.91877,174.493843 Z" id="Path-257" stroke="none" fill="#848F8F" fill-rule="evenodd" sketch:type="MSShapeGroup" mask="url(#mask-10)"></path>
                    <path d="M6.16530295,83.0494042 C10.1934118,90.2534823 9.92518194,102.00436 7.11361748,109.346048 C7.11361748,109.346048 7.52432322,109.747808 11.0606238,110.731372 C15.5746157,101.069335 18.4409916,92.0158279 12.2020499,83.0494042 C12.2020499,83.0494042 11.2537349,82.2390963 6.16530295,83.0494042 Z" id="Path-251" stroke="none" fill="#848F8F" fill-rule="evenodd" sketch:type="MSShapeGroup" mask="url(#mask-10)"></path>
                    <path d="M29.2375804,86.6511758 C35.5371084,86.6511759 46.1349058,96.5661267 49.0491387,102.048573 C49.0491387,102.048573 49.1741722,102.157224 53.0933127,99.8645644 C49.1741722,92.0894611 39.1363898,82.8116935 35.7197031,81.2168004 C35.7197031,81.2168004 33.3577025,81.9661767 29.2375804,86.6511758 Z" id="Path-258" stroke="none" fill="#848F8F" fill-rule="evenodd" sketch:type="MSShapeGroup" mask="url(#mask-10)"></path>
                    <path d="M56.6954484,63.9648289 C62.512785,52.8748364 89.5329812,59.0778313 89.5329812,59.0778313 C89.5329812,59.0778313 117.516916,58.3122816 121.021894,65.0564513 C108.581831,70.2636367 89.7273572,70.2636364 89.7273572,70.2636364 C89.7273572,70.2636364 65.4423685,70.7148831 56.6954484,63.9648289 Z" id="Path-248" stroke="none" fill="#D8D8D8" fill-rule="evenodd" sketch:type="MSShapeGroup" mask="url(#mask-10)"></path>
                    <path d="M53.4245682,124.539054 C66.4235926,127.48668 110.423723,128.35363 118.240241,124.539054 C118.240241,124.539054 118.24024,128.488457 118.240241,131.808661 C97.4919312,136.984557 68.1038966,136.464387 53.4245682,131.808661 L53.4245682,124.539054 Z" id="Path-254" stroke="none" fill="#169EED" fill-rule="evenodd" sketch:type="MSShapeGroup" mask="url(#mask-10)"></path>
                    <path d="M53.0933127,128.912361 C66.0923371,131.859987 110.423719,132.726937 118.240237,128.912361 C118.240237,128.912361 118.240236,132.861764 118.240237,136.181968 C97.4919273,141.357864 67.772641,140.837694 53.0933127,136.181968 L53.0933127,128.912361 Z" id="Path-253" stroke="none" fill="#848F8F" fill-rule="evenodd" sketch:type="MSShapeGroup" mask="url(#mask-10)"></path>
                    <path d="M35.5829964,81.4629255 C35.5829964,81.4629255 48.8338668,94.9671502 52.4477413,98.3133296 C61.8438138,91.0234372 60.5789579,64.6125201 59.555027,60.549302 C49.9180301,60.250536 43.1721315,65.3893123 35.5829964,81.4629255 Z" id="Path-346" stroke="none" fill="#D8D8D8" fill-rule="evenodd" sketch:type="MSShapeGroup" mask="url(#mask-10)"></path>
                    <path d="M60.5534337,52.5267629 C61.2030566,53.3839744 64.6358413,61.3186765 65.6647112,61.6285737 C75.0549374,64.4569244 77.1671187,65.4825194 86.6879467,65.4825194 C96.5253603,65.4825194 101.21342,65.4825188 108.759135,61.6285737 C109.672309,61.1621738 112.657527,52.7691362 113.260205,51.9353682 C117.102926,46.6192019 119.365197,40.1023114 119.365197,33.0611773 C119.365197,15.1553645 104.735094,0.639835177 86.6879467,0.639835177 C68.6407997,0.639835177 54.0106965,15.1553645 54.0106965,33.0611773 C54.0106965,40.3656475 56.4453477,47.1059278 60.5534337,52.5267629 Z" id="Oval-171" stroke="none" fill="#FFFFFF" fill-rule="evenodd" sketch:type="MSShapeGroup"></path>
                    <ellipse id="Oval-170" stroke="none" fill="#2E2C2B" fill-rule="evenodd" sketch:type="MSShapeGroup" cx="86.6879467" cy="33.0591433" rx="29.0464446" ry="28.8189708"></ellipse>
                    <path d="M86.3248661,47.8288658 C98.7573452,47.8288658 108.835861,38.4744136 108.835861,26.935112 C108.835861,15.3958104 98.7573452,6.04135818 86.3248661,6.04135818 C73.8923871,6.04135818 63.8138715,15.3958104 63.8138715,26.935112 C63.8138715,38.4744136 73.8923871,47.8288658 86.3248661,47.8288658 Z" id="Oval-167" stroke="none" fill="#414143" fill-rule="evenodd" sketch:type="MSShapeGroup"></path>
                    <ellipse id="Oval-169" stroke="none" fill="#EEEEEE" fill-rule="evenodd" sketch:type="MSShapeGroup" cx="94.675719" cy="18.2894208" rx="6.53545004" ry="6.48426843"></ellipse>
                </g>
            </g>
            <g id="flag" mask="url(#mask-2)" sketch:type="MSShapeGroup">
                <g transform="translate(187.000000, 296.000000)">
                    <path d="M94.0638777,66.1447359 C89.888967,65.2857478 0.5390059,43.1543017 0.5390059,43.1543017 C0.5390059,43.1543017 102.823155,5.00322079 107.739301,3.3864504 C91.8714034,13.7446362 82.2315802,50.9322131 94.0638777,66.1447359 Z" id="Path-350" fill="#1999E3"></path>
                    <ellipse id="Oval-242" opacity="0.2" fill="#000000" transform="translate(165.000000, 340.500000) rotate(8.000000) translate(-165.000000, -340.500000) " cx="165" cy="340.5" rx="76" ry="2.5"></ellipse>
                    <path d="M110.041778,2 C110.041778,2 112.958191,0.545566439 114.332314,1.35037473 C115.38473,1.96676214 114.832763,4.89324665 115.578996,4.89324665 C87.2007443,86.571826 94.8144219,302.007435 98.0444669,328 C98.0444669,328 96.9734809,330.368762 93.8174939,330.368762 C90.6615069,330.368762 92.1854014,329.62691 90.6615069,327.999994 C83.9706995,264.395223 87.2007443,38.9445359 110.041778,2 Z" id="Rectangle-34" fill-opacity="0.200000018" fill="#000000"></path>
                    <path d="M108.041778,1 C108.041778,1 110.958191,-0.454433561 112.332314,0.350374733 C113.38473,0.966762141 112.832763,3.89324665 113.578996,3.89324665 C85.2007443,85.571826 92.8144219,301.007435 96.0444669,327 C96.0444669,327 94.9734809,329.368762 91.8174939,329.368762 C88.6615069,329.368762 90.1854014,328.62691 88.6615069,326.999994 C81.9706995,263.395223 85.2007443,37.9445359 108.041778,1 Z" id="Rectangle-40" fill="#9A9A9A"></path>
                    <path d="M58.6455162,46.73508 C58.6455162,48.1970611 60.9699661,48.457207 63.1229761,48.457207 C66.9830067,48.457207 69.7118156,46.7073264 69.7118156,44.4515579 C69.7118156,40.7515495 60.060246,38.8664142 60.060246,33.0956025 C60.060246,28.0613146 67.5595082,24.4268257 71.9953377,24.4268257 C73.6498373,24.4268257 76.3867263,25.1015187 76.3867263,28.1155922 C76.3867263,31.4518179 72.6666932,33.3852585 71.6440266,33.3852585 C71.0475004,33.3852585 70.4144378,32.9745759 70.4144378,32.1556697 C70.4144378,30.4280974 73.0578781,29.5680879 73.0578781,28.6174401 C73.0578781,27.7316091 72.1184722,27.7619975 71.6995338,27.7619975 C70.8930992,27.7619975 63.7395271,28.7265222 63.7395271,32.8582919 C63.7395271,36.026064 74.2788598,38.3434876 74.2788598,44.4515579 C74.2788598,48.1210022 70.0207937,52.0182718 62.8238347,52.0182718 C58.9580075,52.0182718 54.5646866,50.7906152 54.5646866,47.4698471 C54.5646866,43.9165111 59.5996772,41.4654136 60.9290383,41.4654136 C61.0595504,41.4654136 62.1586272,41.6616209 62.1586272,42.870658 C62.1586272,44.1395936 58.6455162,44.533589 58.6455162,46.73508 Z" id="path-1-9" fill="#FFFFFF" transform="translate(65.475706, 38.222549) rotate(-5.000000) translate(-65.475706, -38.222549) "></path>
                </g>
            </g>
            <g id="bubble-1" mask="url(#mask-2)" sketch:type="MSShapeGroup">
                <g transform="translate(391.000000, 320.000000)">
                    <path d="M79.4177319,32.1511515 C79.4177319,48.6438949 65.5466295,61.8336294 42.7890547,61.8336294 C40.0160626,61.8336294 37.3069445,61.0264613 34.6874957,60.6485852 C24.0923933,74.1226559 7.38381061,71.471948 7.38381061,71.471948 C19.1851492,65.852125 18.94685,56.5446028 16.8482201,55.3044259 C7.58464526,49.8289391 2.01409408,41.490886 2.01409408,32.1511515 C2.01409408,15.6590276 20.0314799,2.28902763 42.7890547,2.28902763 C65.5466295,2.28902763 79.4177319,15.6590276 79.4177319,32.1511515 Z" id="path-1" fill-opacity="0.2" fill="#000000"></path>
                    <path d="M77.4177319,30.1511515 C77.4177319,46.6438949 63.5466295,59.8336294 40.7890547,59.8336294 C38.0160626,59.8336294 35.3069445,59.0264613 32.6874957,58.6485852 C22.0923933,72.1226559 5.38381061,69.471948 5.38381061,69.471948 C17.1851492,63.852125 16.94685,54.5446028 14.8482201,53.3044259 C5.58464526,47.8289391 0.0140940791,39.490886 0.0140940791,30.1511515 C0.0140940791,13.6590276 18.0314799,0.289027628 40.7890547,0.289027628 C63.5466295,0.289027628 77.4177319,13.6590276 77.4177319,30.1511515 Z" id="path-1-10" fill="#FFFFFF"></path>
                    <path d="M34.856,47.624 C35.9120053,47.624 36.7279971,47.0640056 37.304,45.944 C37.8800029,44.8239944 38.168,43.4160085 38.168,41.72 C38.168,40.8879958 37.9360023,40.2320024 37.472,39.752 C37.0079977,39.2719976 36.2160056,39.032 35.096,39.032 C34.4239966,39.032 33.7760031,39.1599987 33.152,39.416 C32.5279969,39.6720013 31.9840023,40.0079979 31.52,40.424 C31.0559977,40.8400021 30.6880014,41.3119974 30.416,41.84 C30.1439986,42.3680026 30.008,42.8879974 30.008,43.4 C30.008,44.0400032 30.1519986,44.6159974 30.44,45.128 C30.7280014,45.6400026 31.1039977,46.0799982 31.568,46.448 C32.0320023,46.8160018 32.5519971,47.103999 33.128,47.312 C33.7040029,47.520001 34.2799971,47.624 34.856,47.624 L34.856,47.624 Z M39.848,31.592 C42.1520115,29.9599918 43.999993,28.6240052 45.392,27.584 C46.784007,26.5439948 47.8479963,25.6400038 48.584,24.872 C49.3200037,24.1039962 49.8079988,23.4080031 50.048,22.784 C50.2880012,22.1599969 50.408,21.448004 50.408,20.648 C50.408,19.5599946 50.1840022,18.520005 49.736,17.528 C49.2879978,16.535995 48.664004,15.6640038 47.864,14.912 C47.063996,14.1599962 46.1360053,13.5680022 45.08,13.136 C44.0239947,12.7039978 42.9040059,12.488 41.72,12.488 C40.6639947,12.488 39.7200042,12.6399985 38.888,12.944 C38.0559958,13.2480015 37.3600028,13.6639974 36.8,14.192 C36.2399972,14.7200026 35.8080015,15.3279966 35.504,16.016 C35.1999985,16.7040034 35.048,17.4319962 35.048,18.2 C35.048,18.7440027 35.1599989,19.2559976 35.384,19.736 C35.6080011,20.2160024 35.9599976,20.5839987 36.44,20.84 C37.0800032,20.7439995 37.7359966,20.6720002 38.408,20.624 C39.0800034,20.5759998 39.6399978,20.552 40.088,20.552 C41.3680064,20.552 42.1999981,20.7439981 42.584,21.128 C42.9680019,21.5120019 43.16,21.8959981 43.16,22.28 C43.16,22.6640019 43.0960006,23.0159984 42.968,23.336 C42.8399994,23.6560016 42.5840019,24.015998 42.2,24.416 C41.8159981,24.816002 41.2720035,25.2799974 40.568,25.808 C39.8639965,26.3360026 38.9200059,26.9839962 37.736,27.752 C36.9039958,28.2960027 36.2240026,28.7839978 35.696,29.216 C35.1679974,29.6480022 34.7520015,30.0479982 34.448,30.416 C34.1439985,30.7840018 33.9360006,31.1439982 33.824,31.496 C33.7119994,31.8480018 33.656,32.2159981 33.656,32.6 C33.656,33.1760029 33.751999,33.7119975 33.944,34.208 C34.136001,34.7040025 34.3999983,35.1359982 34.736,35.504 C35.0720017,35.8720018 35.4559978,36.159999 35.888,36.368 C36.3200022,36.576001 36.7919974,36.68 37.304,36.68 C37.9760034,36.68 38.4959982,36.584001 38.864,36.392 C39.2320018,36.199999 39.4959992,35.9760013 39.656,35.72 C39.5599995,35.1439971 39.512,34.6160024 39.512,34.136 C39.512,33.143995 39.6239989,32.2960035 39.848,31.592 L39.848,31.592 Z" id="?" fill="#2C3652" transform="translate(40.208000, 30.056000) rotate(-18.000000) translate(-40.208000, -30.056000) "></path>
                </g>
            </g>
            <g id="Monster" mask="url(#mask-2)">
                <g transform="translate(485.000000, 319.000000)">
                    <path d="M120.270396,294.559269 C128.611016,306.575418 154.396069,318.39863 195.792371,322.945077 C235.834766,328.061632 304.74651,322.945078 316.476856,308.960524 C327.161335,281.926439 297.088993,259.461931 274.948723,247.345476 C219.472964,267.256274 56.784949,274.414219 58.9501359,288.826118 C61.1153228,303.238018 91.515388,299.75562 120.270396,294.559269 Z" id="Oval-254" stroke="none" opacity="0.2" fill="#000000" fill-rule="evenodd" sketch:type="MSShapeGroup" transform="translate(188.815654, 286.115572) rotate(5.000000) translate(-188.815654, -286.115572) "></path>
                    <path d="M183.924991,2.06456707 C264.687803,2.06456707 279.047708,55.7721337 253.885139,115.048238 C335.004637,134.905098 320.867634,224.765802 320.867634,224.765802 C320.867634,224.765802 328.503387,238.344734 326.090973,240.757164 C323.678558,243.169593 316.914825,229.237129 316.914825,229.237129 C316.914825,229.237129 316.914825,247.305183 313.462524,245.582023 C310.010223,243.858863 313.462524,229.237129 313.462524,229.237129 C313.462524,229.237129 303.00058,238.689369 301.277405,235.587669 C299.554229,232.485969 309.086792,225.438914 313.462535,220.727115 C320.867625,134.568532 252.202149,129.520178 252.202149,129.520178 C253.885139,234.86251 297.305958,253.036593 305.720831,276.595565 C300.806937,287.404915 266.675755,291.067515 239.748127,291.067515 C221.571966,301.500779 210.682334,311.18243 187.575832,314.963063 C170.409462,311.182438 148.194162,301.837354 125.305673,287.365404 C114.871206,281.980494 99.0512233,286.019161 86.5971917,289.048182 C71.7869913,289.048182 58.6597689,281.980494 58.6597689,268.854766 C58.6597689,247.315128 78.5188983,247.315128 101.407392,218.371226 C118.020563,165.436645 112.851641,142.33388 112.851641,127.86193 C46.2057359,136.275849 49.4624891,185.319539 65.2824758,209.551631 C71.3233068,213.402854 76.0819108,215.398323 76.9541776,220.141441 C72.8925664,221.895317 64.5574777,214.500373 64.5574777,214.500373 C64.5574777,214.500373 73.4047639,236.182456 68.7942064,237.054725 C64.1836488,237.926994 59.4484813,216.618736 59.4484813,216.618736 C59.4484813,216.618736 54.77585,233.591697 53.3833458,232.544319 C51.9908416,231.49694 49.7889916,221.667685 54.8379237,215.273109 C57.1940919,211.907533 15.2389539,129.881277 112.851641,115.07277 C94.5229889,68.4732696 105.206579,2.06456707 183.924991,2.06456707 Z" id="Path-356" stroke="none" fill-opacity="0.2" fill="#000000" fill-rule="evenodd" sketch:type="MSShapeGroup"></path>
                    <mask id="mask-12" sketch:name="Path 357" fill="white">
                        <use xlink:href="#path-11"></use>
                    </mask>
                    <use id="Path-357" stroke="none" fill="#CF5141" fill-rule="evenodd" sketch:type="MSShapeGroup" xlink:href="#path-11"></use>
                    <path d="M56.8492404,271.504173 C59.8567219,285.913361 81.48891,296.059266 81.48891,296.059266 C81.48891,296.059266 108.704448,288.163487 117.47627,286.785227 C137.024899,294.428367 162.862967,310.97284 175.018203,312.727008 C209.854861,314.982371 230.030058,289.672297 240.68155,289.672287 C288.675935,291.677052 307.22208,277.142547 307.22208,277.142547 L338.675317,228.401861 L235.794393,-12.6703326 C235.794393,-12.6703326 193.313719,-2.27064894 186.797509,0.861786019 C213.614217,5.24719545 228.77738,40.8379025 228.77738,40.8379025 L218.802236,119.317312 C218.802236,119.317312 198.306277,166.001984 180.30901,186.342833 C210.969207,188.851459 233.600399,163.626075 240.681548,169.932426 C262.941771,190.335282 232.30312,280.517169 189.822,296.059266 C174.797551,304.629665 125.394759,278.77141 122.136652,274.636599 C109.730792,266.492265 99.8311659,267.118761 95.1946302,267.118756 C95.1946302,267.118756 70.758843,279.899095 56.8492404,271.504173 Z" id="Path-373" stroke="none" opacity="0.2" fill="#000000" fill-rule="evenodd" sketch:type="MSShapeGroup" mask="url(#mask-12)"></path>
                    <ellipse id="Oval-256" stroke="none" fill-opacity="0.200000003" fill="#000000" fill-rule="evenodd" sketch:type="MSShapeGroup" mask="url(#mask-12)" cx="196.867117" cy="251.520661" rx="4.55630631" ry="7.80991736"></ellipse>
                    <ellipse id="Oval-260" stroke="none" fill-opacity="0.200000003" fill="#000000" fill-rule="evenodd" sketch:type="MSShapeGroup" mask="url(#mask-12)" cx="176.038288" cy="237.853306" rx="8.46171171" ry="9.76239669"></ellipse>
                    <ellipse id="Oval-257" stroke="none" opacity="0.2" fill="#FFFFFF" fill-rule="evenodd" sketch:type="MSShapeGroup" mask="url(#mask-12)" cx="250.891892" cy="248.917355" rx="5.20720721" ry="6.50826446"></ellipse>
                    <ellipse id="Oval-258" stroke="none" opacity="0.2" fill="#FFFFFF" fill-rule="evenodd" sketch:type="MSShapeGroup" mask="url(#mask-12)" cx="259.353604" cy="259.981405" rx="3.2545045" ry="3.25413223"></ellipse>
                    <ellipse id="Oval-259" stroke="none" opacity="0.3" fill="#FFFFFF" fill-rule="evenodd" sketch:type="MSShapeGroup" mask="url(#mask-12)" cx="259.353604" cy="240.456612" rx="3.2545045" ry="3.25413223"></ellipse>
                    <ellipse id="Oval-256" stroke="none" fill-opacity="0.200000003" fill="#000000" fill-rule="evenodd" sketch:type="MSShapeGroup" mask="url(#mask-12)" cx="184.5" cy="259.330579" rx="3.90540541" ry="3.90495868"></ellipse>
                    <path d="M105.083607,46.3948848 L115.745213,58.0601972 C116.395929,58.7721733 116.868312,60.1416402 116.799681,61.1280131 L116.566631,64.4774615 C116.498281,65.4597934 115.91019,65.6747432 115.265616,64.9712341 L101.610082,50.0671407 C100.959901,49.3575119 100.975412,48.20779 101.647357,47.4963807 L102.69085,46.3916015 C103.361617,45.6814388 104.431828,45.6817457 105.083607,46.3948848 Z" id="Rectangle-36" stroke="none" fill="#2D2D2D" fill-rule="evenodd" sketch:type="MSShapeGroup" mask="url(#mask-12)"></path>
                    <path d="M264.826256,51.1257151 L249.282732,65.075743 C248.651826,65.64197 248.030324,65.4049201 247.89689,64.560961 L247.542055,62.3166502 C247.407582,61.4661169 247.803124,60.3256829 248.44608,59.751047 L263.640175,46.171461 C264.273927,45.6050508 264.951888,45.8347985 265.148419,46.6593453 L265.607879,48.5870097 C265.807107,49.4228709 265.454276,50.562079 264.826256,51.1257151 Z" id="Rectangle-37" stroke="none" fill="#2D2D2D" fill-rule="evenodd" sketch:type="MSShapeGroup" mask="url(#mask-12)"></path>
                    <path d="M262.154589,86.5138163 C343.274087,106.370677 326.609199,202.765802 326.609199,202.765802 C326.609199,202.765802 334.244952,216.344734 331.832537,218.757164 C329.420123,221.169593 322.65639,207.237129 322.65639,207.237129 C322.65639,207.237129 322.65639,225.305183 319.204089,223.582023 C315.751788,221.858863 319.204089,207.237129 319.204089,207.237129 C319.204089,207.237129 308.742144,216.689369 307.018969,213.587669 C305.295794,210.485969 314.828356,203.438914 319.2041,198.727115 C326.60919,112.568532 257.943713,107.520178 257.943713,107.520178 C262.154589,86.5138163 257.943713,97.7797051 262.154589,86.5138163 Z" id="Path" stroke="none" fill="#A54034" fill-rule="evenodd" sketch:type="MSShapeGroup" transform="translate(295.123725, 155.105849) rotate(-16.000000) translate(-295.123725, -155.105849) "></path>
                    <mask id="mask-14" sketch:name="Path 374" fill="white">
                        <use xlink:href="#path-13"></use>
                    </mask>
                    <use id="Path-374" stroke="none" fill="#CF5141" fill-rule="evenodd" sketch:type="MSShapeGroup" transform="translate(66.352823, 134.076781) rotate(45.000000) translate(-66.352823, -134.076781) " xlink:href="#path-13"></use>
                    <ellipse id="Oval-244" stroke="none" fill="#F7F7ED" fill-rule="evenodd" sketch:type="MSShapeGroup" cx="218.346847" cy="66.6859504" rx="23.4324324" ry="23.4297521"></ellipse>
                    <path d="M145.445946,90.1157025 C158.387321,90.1157025 168.878378,79.6258452 168.878378,66.6859504 C168.878378,53.7460557 158.387321,43.2561983 145.445946,43.2561983 C132.504571,43.2561983 122.013514,53.7460557 122.013514,66.6859504 C122.013514,79.6258452 132.504571,90.1157025 145.445946,90.1157025 Z" id="Oval-244" stroke="none" fill="#F7F7ED" fill-rule="evenodd" sketch:type="MSShapeGroup"></path>
                    <ellipse id="Oval-248" stroke="#284E94" stroke-width="2" fill="#4C88CE" fill-rule="evenodd" sketch:type="MSShapeGroup" cx="218.346847" cy="67.9876033" rx="11.7162162" ry="11.714876"></ellipse>
                    <ellipse id="Oval-249" stroke="none" fill="#1D3375" fill-rule="evenodd" sketch:type="MSShapeGroup" cx="218.346847" cy="67.9876033" rx="6.50900901" ry="6.50826446"></ellipse>
                    <ellipse id="Oval-250" stroke="none" fill="#FFFFFF" fill-rule="evenodd" sketch:type="MSShapeGroup" cx="224.855856" cy="60.177686" rx="5.20720721" ry="5.20661157"></ellipse>
                    <rect id="Rectangle-35" stroke="none" fill="#2D2D2D" fill-rule="evenodd" sketch:type="MSShapeGroup" x="175.387387" y="62.7809917" width="14.3198198" height="3.90495868" rx="1"></rect>
                    <ellipse id="Oval-253" stroke="#284E94" stroke-width="2" fill="#4C88CE" fill-rule="evenodd" sketch:type="MSShapeGroup" cx="145.445946" cy="67.9876033" rx="11.7162162" ry="11.714876"></ellipse>
                    <ellipse id="Oval-252" stroke="none" fill="#1D3375" fill-rule="evenodd" sketch:type="MSShapeGroup" cx="145.445946" cy="67.9876033" rx="6.50900901" ry="6.50826446"></ellipse>
                    <ellipse id="Oval-251" stroke="none" fill="#FFFFFF" fill-rule="evenodd" sketch:type="MSShapeGroup" cx="151.954955" cy="60.177686" rx="5.20720721" ry="5.20661157"></ellipse>
                    <ellipse id="Oval-246" stroke="none" opacity="0.3" fill="#000000" fill-rule="evenodd" sketch:type="MSShapeGroup" cx="176.038288" cy="118.10124" rx="3.2545045" ry="4.55578512"></ellipse>
                    <ellipse id="Oval-247" stroke="none" opacity="0.3" fill="#000000" fill-rule="evenodd" sketch:type="MSShapeGroup" cx="186.452703" cy="118.10124" rx="3.2545045" ry="4.55578512"></ellipse>
                    <ellipse id="Oval-245" stroke="#2D2D2D" stroke-width="4" fill="none" sketch:type="MSShapeGroup" cx="145.445946" cy="66.6859504" rx="28.6396396" ry="28.6363636"></ellipse>
                    <ellipse id="Oval-255" stroke="#2D2D2D" stroke-width="4" fill="none" sketch:type="MSShapeGroup" cx="218.346847" cy="66.6859504" rx="28.6396396" ry="28.6363636"></ellipse>
                    <g id="Group" stroke="none" stroke-width="1" fill="none" fill-rule="evenodd" sketch:type="MSLayerGroup" transform="translate(144.144144, 123.657025)">
                        <mask id="mask-16" sketch:name="Path 369" fill="white">
                            <use xlink:href="#path-15"></use>
                        </mask>
                        <use id="Path-369" fill="#4E120B" sketch:type="MSShapeGroup" xlink:href="#path-15"></use>
                        <path d="M27.1691975,64.0084254 C27.1691975,59.7928458 32.7375811,50.6458342 45.8630561,46.2711765 C43.5561536,50.6458342 45.8630555,51.5207658 45.8630555,51.5207658 L52.5451154,45.7939411 C52.5451154,45.7939411 62.5933745,45.7119406 67.7640157,49.609363 C57.740927,66.2330627 43.8743475,66.5536796 27.1691975,64.0084254 Z" id="Path-370" fill="#B45065" sketch:type="MSShapeGroup" mask="url(#mask-16)"></path>
                        <path d="M19.2143643,18.3158544 C19.2143643,18.3158544 18.4417788,24.8380712 21.0668736,27.9401016 C23.9306135,29.2922683 28.3624223,28.5764148 31.3057107,27.9401016 C32.5784838,25.8720815 31.3057108,18.0772367 31.3057108,18.0772367 L19.2143643,18.3158544 Z" id="Path-371" fill="#FFFFFF" sketch:type="MSShapeGroup" mask="url(#mask-16)"></path>
                        <path d="M45.0385437,14.787593 C45.0385437,14.787593 45.0385437,21.9611966 48.4493447,23.3929024 C52.5063096,23.3929024 56.4041779,20.7681081 58.7906279,18.7796271 C59.9043047,15.2799006 51.9953277,9.33763649 51.9953277,9.33763649 L45.0385437,14.787593 Z" id="Path-372" fill="#FFFFFF" sketch:type="MSShapeGroup" mask="url(#mask-16)"></path>
                    </g>
                </g>
            </g>
            <g id="bubble-2" mask="url(#mask-2)">
                <g transform="translate(389.000000, 152.000000)">
                    <path d="M206.23453,194.067318 C206.23453,194.067318 159.790899,201.378892 130.339108,164.218653 C123.057339,165.260251 115.526152,167.486194 107.819273,167.486194 C44.5579239,167.486194 6,131.11186 6,85.6266865 C6,40.1430818 44.5579239,3.26991013 107.819273,3.26991013 C171.079053,3.26991013 221.162,40.1430818 221.162,85.6266865 C221.162,111.382689 205.677652,134.377832 179.926355,149.479424 C174.094038,152.899126 173.43049,178.568852 206.23453,194.067318 Z" id="path-1-11" stroke="none" fill-opacity="0.2" fill="#000000" fill-rule="evenodd" sketch:type="MSShapeGroup"></path>
                    <mask id="mask-18" sketch:name="path-1" fill="white">
                        <use xlink:href="#path-17"></use>
                    </mask>
                    <use id="path-1" stroke="#FFFFFF" stroke-width="5" fill="#FFFFFF" fill-rule="evenodd" sketch:type="MSShapeGroup" xlink:href="#path-17"></use>
                    <rect id="Rectangle-37" stroke="none" fill="#4D5C70" fill-rule="evenodd" sketch:type="MSShapeGroup" mask="url(#mask-18)" x="-5" y="-12" width="256" height="212" rx="3"></rect>
                    <rect id="Path" stroke="#37424F" stroke-width="1" fill="#3C4857" fill-rule="evenodd" sketch:type="MSShapeGroup" mask="url(#mask-18)" x="-11" y="72" width="232" height="48" rx="3"></rect>
                    <rect id="Path" stroke="#37424F" stroke-width="1" fill="#3C4857" fill-rule="evenodd" sketch:type="MSShapeGroup" mask="url(#mask-18)" x="-11" y="39" width="226" height="34" rx="3"></rect>
                    <rect id="Rectangle-36" stroke="none" fill="#5CBA3C" fill-rule="evenodd" sketch:type="MSShapeGroup" mask="url(#mask-18)" x="41" y="86" width="180" height="22" rx="2"></rect>
                    <rect id="Rectangle-38" stroke="none" fill="#6B7986" fill-rule="evenodd" sketch:type="MSShapeGroup" mask="url(#mask-18)" x="12" y="86" width="22" height="22" rx="3"></rect>
                    <rect id="Rectangle-39" stroke="#FFFFFF" stroke-width="2" fill="none" sketch:type="MSShapeGroup" mask="url(#mask-18)" x="17" y="91" width="12" height="12" rx="3"></rect>
                    <rect id="Rectangle-36" stroke="none" fill="#1990D7" fill-rule="evenodd" sketch:type="MSShapeGroup" mask="url(#mask-18)" x="7" y="-6" width="194" height="45" rx="3"></rect>
                    <text id="ADD-IMAGE" stroke="none" fill="none" sketch:type="MSTextLayer" mask="url(#mask-18)" font-family="Montserrat" font-size="10" font-weight="normal">
                        <tspan x="97" y="101" fill="#FFFFFF">ADD IMAGE</tspan>
                    </text>
                    <text id="Slider-#1" stroke="none" fill="none" sketch:type="MSTextLayer" mask="url(#mask-18)" font-family="Montserrat" font-size="10" font-weight="normal">
                        <tspan x="40" y="61" fill="#CEDAE2">Slider #1</tspan>
                    </text>
                    <path d="M143.901355,25.8435828 C143.774089,26.0782444 143.605189,26.3252069 143.395129,26.583997 C143.185069,26.8432602 142.942838,27.104889 142.669381,27.3688833 C142.395452,27.6328776 142.116791,27.8699048 141.833399,28.0799647 C141.549535,28.2904978 141.268508,28.4612899 140.989848,28.593287 C140.711187,28.7252842 140.459494,28.8355184 140.234767,28.8355184 C139.784841,28.8355184 139.439946,28.6907473 139.200553,28.4906226 C138.96116,28.2904978 138.782325,27.9796658 138.782325,27.5595458 C138.782325,27.314949 138.877893,27.0608899 138.951225,26.7968956 C139.024557,26.5329013 139.181629,26.2812078 139.274358,26.041342 C139.36756,25.8019493 139.598437,25.5128803 139.671769,25.3222177 C139.7451,25.1315551 139.707725,24.9872572 139.707725,24.8893238 C139.707725,24.8013257 139.683596,24.6716941 139.60506,24.6177598 C139.526998,24.5638254 139.242186,24.5472667 139.04632,24.5524709 C138.821593,24.9924614 138.643232,25.3690554 138.452569,25.6529203 C138.356055,25.796272 138.233047,25.9344196 138.122813,26.0754058 C138.017783,26.2395743 137.900452,26.4061083 137.756154,26.5769004 C137.54089,26.8309594 137.289196,27.0802874 137.0006,27.3248842 C136.712478,27.569008 136.40685,27.7890033 136.08419,27.98487 C135.76153,28.1802637 135.428935,28.4253336 135.086878,28.5426645 C134.744348,28.6599953 134.416957,28.8222713 134.104233,28.8222713 C133.380377,28.8222713 132.938967,28.4149253 132.601641,27.98487 C132.264315,27.5543417 132.139888,26.9284197 132.139888,26.1364367 C132.139888,25.5791154 132.210381,25.0492343 132.410979,24.5160415 C132.611577,23.9833218 132.767229,23.5064289 133.084685,23.0863089 C133.402613,22.6657158 133.75224,22.3260242 134.133565,22.066761 C134.51489,21.8079708 134.881549,21.6783392 135.233542,21.6783392 C135.74166,21.6783392 136.130555,21.8004011 136.39928,22.044998 C136.668479,22.2891218 136.802841,22.6704469 136.802841,23.1889733 C136.802841,23.5016978 136.753638,23.7926593 136.656178,24.0613847 C136.558244,24.3305832 136.401646,24.5770725 136.186854,24.8022719 C135.97159,25.0269983 135.690564,25.2252306 135.343303,25.3960226 C134.996515,25.5672877 134.573556,25.7115857 134.0749,25.8289165 C134.0749,26.1610383 134.03232,26.6076524 134.125523,26.7836486 C134.218252,26.9596448 134.406549,27.0476429 134.68994,27.0476429 C134.934537,27.0476429 135.196166,26.9960741 135.474827,26.8934097 C135.753487,26.7907452 136.120619,26.4543654 136.39928,26.268907 C136.677941,26.0829755 136.947139,25.8606147 137.205929,25.6013515 C137.380033,25.4277208 137.537105,25.2342196 137.686607,25.0317293 C137.732499,24.964548 137.780756,24.8940549 137.821916,24.8316046 C137.963848,24.6163404 138.201822,24.386883 138.328615,24.0836207 C138.269949,24.0154932 138.366463,23.9322262 138.322464,23.8342928 C138.278465,23.7368325 138.271369,23.5603632 138.271369,23.4231618 C138.271369,23.1691028 138.253391,22.8360347 138.424656,22.5427077 C138.595448,22.2493807 138.638501,22.0691265 138.877893,21.8250027 C139.383646,21.4938271 139.855808,21.2402411 140.366764,21.2255748 C140.620823,21.2255748 140.823787,21.2818746 140.975181,21.3940013 C141.126576,21.506601 141.202746,21.4091407 141.202746,21.6050075 C141.202746,21.712403 141.18808,21.8103364 141.158747,21.8983345 C140.982751,21.9957948 140.821421,22.1012979 140.674758,22.2134245 C140.528094,22.3260242 140.405559,22.465118 140.308099,22.631652 C140.386162,22.6803822 140.488826,22.7267467 140.616092,22.7707458 C140.742885,22.8147448 140.870151,22.8563784 140.997418,22.8956463 C141.427473,23.0224393 141.708499,23.1449743 141.840496,23.2623051 C141.972493,23.3796359 142.038728,23.5262994 142.038728,23.7022956 C142.038728,23.8489591 142.001826,24.0126545 141.928494,24.1933818 C141.855162,24.3745822 141.760068,24.5822767 141.642737,24.8169383 C141.476203,25.1589954 141.329539,25.4915904 141.202746,25.8142501 C141.07548,26.1369098 141.012084,26.3909689 141.012084,26.5769004 C141.012084,26.6842959 141.029116,26.7699285 141.06318,26.8333249 C141.097243,26.8971945 141.163478,26.9288928 141.261412,26.9288928 C141.358872,26.9288928 141.493235,26.8749584 141.6645,26.7675629 C141.835765,26.6596943 142.024062,26.5106652 142.229391,26.3200027 C142.43472,26.1293401 142.64478,25.9046138 142.860044,25.6453505 C143.074835,25.3865604 143.268809,25.0236865 143.535169,25.0090202 C143.801056,24.9943538 143.929268,25.0369335 143.958601,25.2417893 C143.958601,25.3983881 144.028148,25.6089212 143.901355,25.8435828 L143.901355,25.8435828 Z M135.485235,23.5986849 C135.485235,23.1317273 134.999826,23.100029 134.999826,23.100029 C134.892431,23.100029 134.469472,23.2973151 134.293476,23.5329229 C134.063072,23.8413894 134.048879,24.0329982 134.044621,24.7436065 C134.604781,24.7067041 135.485235,23.992784 135.485235,23.5986849 L135.485235,23.5986849 Z M132.609211,22.2446496 C132.181995,23.9431076 131.236725,28.807605 128.355496,28.807605 C127.768842,28.807605 127.467946,28.6145769 127.115953,28.2280476 C126.865679,27.9536449 126.651361,27.4776982 126.547277,26.9312583 C126.427581,27.0646748 126.320185,27.1995106 126.18535,27.3319809 C125.930817,27.5813088 125.666823,27.8065083 125.393367,28.006633 C125.119437,28.2072308 124.847873,28.5043427 124.579148,28.6311357 C124.309949,28.7579286 124.06346,28.8217982 123.838733,28.8217982 C123.398743,28.8217982 123.095481,28.7262304 122.92942,28.5355678 C122.762886,28.3449053 122.680092,27.9115383 122.680092,27.5008804 C122.680092,27.358948 122.691446,27.2165425 122.707059,27.074137 C122.604394,27.1824787 122.507407,27.2917667 122.393861,27.398216 C122.007805,27.7596706 121.589578,28.0652984 121.140125,28.3146264 C120.690199,28.5639543 120.279541,28.8217982 119.908151,28.8217982 C119.477623,28.8217982 119.177199,28.5956526 119.005934,28.4101942 C118.834669,28.2242627 118.897119,27.940871 118.897119,27.5595458 C118.897119,27.3381313 118.925979,26.1023729 118.998838,25.7702511 C119.066965,25.4570535 119.1332,25.1665651 119.196597,24.8973666 C119.259993,24.6286413 119.306831,24.4157426 119.336164,24.2596169 C119.374959,24.0249553 119.421323,23.7656921 119.475258,23.4823004 C119.529192,23.1984355 119.582653,22.9103127 119.636587,22.6169857 C119.690522,22.3236587 119.741617,22.0326972 119.790821,21.7441013 C119.839551,21.4559784 119.800756,21.6542107 119.996623,20.9303553 C120.065223,20.4316994 120.17735,19.9865047 120.333949,19.5957174 C120.490547,19.204457 120.678845,18.8747007 120.89884,18.6055022 C121.484074,17.8901628 121.511988,17.895367 122.401431,17.895367 C122.714155,17.895367 122.77424,18.0462884 122.957333,18.2114032 C123.05432,18.2984551 123.174963,18.4318715 123.174963,18.8037345 C123.174963,18.9697954 123.167866,19.1434261 123.123867,19.3241534 C123.079868,19.5053538 123.006536,19.725349 122.903872,19.9841392 C122.801207,20.2434024 122.718413,20.5537613 122.537686,20.915689 C122.356486,21.2771436 122.203199,21.7171341 121.929742,22.2356606 C121.831809,22.587653 121.719209,22.9959452 121.592416,23.4600643 C121.46515,23.9246564 121.347819,24.3717436 121.240424,24.8022719 C121.132555,25.2323272 121.039826,25.6136523 120.961763,25.9462473 C120.883227,26.2783692 120.92013,26.4889022 120.92013,26.5769004 C120.92013,26.7235639 120.988257,26.7968956 121.125459,26.7968956 C121.242789,26.7968956 121.379518,26.7476924 121.536116,26.6502321 C121.692242,26.5522987 121.863507,26.413205 122.049439,26.2320046 C122.234897,26.0512773 122.42556,25.8360131 122.621426,25.5866851 C122.81682,25.3373572 123.012214,25.0662662 123.20808,24.7729392 C123.209973,24.7729392 123.211865,24.7734123 123.213758,24.7734123 C123.219908,24.6570277 123.239305,24.5434818 123.239305,24.4356132 C123.239305,24.220349 123.356163,24.0916636 123.429022,23.6947259 C123.485795,23.3848401 123.700113,23.1544365 123.920108,22.9103127 C124.140103,22.6657158 124.290552,22.4580214 124.549815,22.2867562 C124.808605,22.1159642 125.050836,22.1779414 125.276036,22.1779414 C125.779423,22.1779414 125.965827,22.5313531 125.972451,22.5800832 C125.987117,22.692683 125.994214,22.8223146 125.994214,22.9689781 C125.994214,23.1643717 125.810175,23.4037644 125.70751,23.6876293 C125.604846,23.971021 125.396205,24.2690791 125.259477,24.5822767 C125.054148,25.0903947 124.872475,25.4792896 124.775014,25.748015 C124.677081,26.0172135 124.599018,26.3086481 124.599018,26.474709 C124.599018,26.6213725 124.9037,26.9014525 125.040901,26.9014525 C125.138361,26.9014525 125.408033,26.4836981 125.730693,26.2102416 C125.963935,26.0120093 126.241649,25.7021235 126.561944,25.2843691 C126.597427,25.0776208 126.635275,24.8718188 126.713338,24.6702748 C126.908732,24.1616836 127.155221,23.7093922 127.453752,23.3134008 C127.75181,22.9174093 128.145909,22.6562536 128.48844,22.4121299 C128.830497,22.167533 129.445064,22.154286 129.737445,22.1784145 C130.095115,22.2077472 130.633512,22.5450732 130.746111,22.657673 C131.419344,18.9423552 130.990708,17.7813479 132.586502,17.4676773 C133.47358,17.4378714 133.550696,17.8281856 133.435731,18.4134203 C133.361926,18.867131 132.845765,21.2733587 132.609211,22.2446496 L132.609211,22.2446496 Z M129.745488,23.5778682 C128.40328,23.5882766 127.846432,26.3786681 127.994515,27.253918 C128.533385,27.5335249 129.211822,27.5051384 129.917699,25.2786918 C130.281992,24.1290391 130.079502,23.6483613 129.745488,23.5778682 L129.745488,23.5778682 Z M126.837766,19.9548065 C126.774842,20.3470131 126.582287,20.5334177 126.082685,20.7813263 C125.79882,20.7813263 125.564159,20.7207685 125.3787,20.5102354 C125.192769,20.3001754 125.055567,20.2017689 125.055567,19.7717136 C125.055567,19.1751243 125.160597,18.9787845 125.283132,18.7393918 C125.405194,18.4999991 125.584029,18.3798296 125.818691,18.3798296 C125.965354,18.3798296 126.112018,18.4167321 126.258681,18.4900638 C126.405345,18.5633956 126.539234,18.6537592 126.661769,18.7611548 C126.783831,18.8690234 126.881765,18.9863542 126.955096,19.1131472 C127.028428,19.2404133 126.96172,19.1410606 126.96172,19.2583914 C126.96172,19.4343876 126.889334,19.633093 126.837766,19.9548065 L126.837766,19.9548065 Z M117.902646,20.0721373 C117.652372,20.2467142 117.421495,20.3342392 117.209543,20.3342392 C116.99144,20.3342392 116.817809,20.2552301 116.689597,20.0967389 C116.561385,19.9382477 116.497042,19.7523162 116.497042,19.5389445 C116.497042,19.3577441 116.55003,19.1765437 116.656006,18.9953433 C116.761983,18.814616 116.933721,18.6594365 117.171221,18.5298049 C117.357153,18.4328178 117.522267,18.3017668 117.667038,18.1366521 C117.811336,17.9720105 117.883722,17.8120999 117.883722,17.6564474 C117.883722,17.5078914 117.833572,17.4109043 117.73422,17.3654859 C117.634867,17.3205406 117.514225,17.2978315 117.373238,17.2978315 C117.103567,17.2978315 116.809767,17.3314221 116.492311,17.3995497 C116.174382,17.4676773 115.856927,17.5594602 115.538998,17.6758448 C115.221543,17.7922294 114.913549,17.9317963 114.615018,18.0931261 C114.316487,18.2549291 114.052966,18.429506 113.825401,18.6173299 C113.597363,18.8046807 113.414743,19.0033861 113.276595,19.2139192 C113.138448,19.4239792 113.069847,19.6326199 113.069847,19.8393681 C113.069847,19.9817736 113.098707,20.1142439 113.156426,20.237252 C113.214145,20.3602601 113.298831,20.4832682 113.411431,20.6058032 C113.523558,20.7288113 113.660286,20.8565505 113.82067,20.9890207 C113.981053,21.1219641 114.166985,21.265789 114.378937,21.4209684 L116.631878,23.0990828 C116.920947,23.3124546 117.178791,23.5210952 117.406829,23.7250048 C117.634867,23.9289144 117.82553,24.1323509 117.979763,24.3362605 C118.133996,24.5396969 118.252273,24.745499 118.336013,24.9522472 C118.41928,25.1594685 118.461387,25.3789907 118.461387,25.6117599 C118.461387,26.1293401 118.32797,26.6355658 118.061611,27.1304368 C117.795251,27.6248348 117.416764,28.0662446 116.925678,28.4546663 C116.434592,28.842615 115.844153,29.1562856 115.153888,29.3956783 C114.464097,29.6345979 113.698608,29.7542943 112.857895,29.7542943 C112.074901,29.7542943 111.408765,29.6913709 110.859959,29.5655241 C110.311154,29.4392043 109.860282,29.2679392 109.507343,29.0512556 C109.154405,28.8345721 108.897507,28.5852442 108.737123,28.304218 C108.57674,28.0227187 108.496311,27.7270261 108.496311,27.4161941 C108.496311,27.0930613 108.578159,26.7647243 108.741854,26.4316562 C108.90555,26.0985881 109.1369,25.7834981 109.435431,25.4859131 C109.733489,25.1883281 110.091159,24.9229145 110.508913,24.6901453 C110.925721,24.4573761 111.384636,24.2794875 111.885658,24.1564794 C112.071589,24.1564794 112.207844,24.2326498 112.294423,24.3845175 C112.381475,24.5368583 112.424528,24.7095427 112.424528,24.9035171 C112.424528,25.0005042 112.415066,25.0847174 112.395668,25.1561568 C112.376271,25.227123 112.337949,25.2933581 112.28023,25.3548622 C112.222511,25.4163662 112.145394,25.4745585 112.04888,25.5294391 C111.952839,25.5843196 111.827465,25.6444043 111.673705,25.708747 C111.314143,25.8639265 111.031698,26.0503311 110.826369,26.2670146 C110.62104,26.4836981 110.518375,26.6984891 110.518375,26.9118609 C110.518375,27.0476429 110.563321,27.1772745 110.653211,27.2998095 C110.743102,27.4228176 110.884088,27.5311594 111.076643,27.6248348 C111.269198,27.7189833 111.518053,27.7932612 111.822734,27.8481418 C112.127416,27.9030223 112.495021,27.9304626 112.925076,27.9304626 C113.367905,27.9304626 113.788498,27.8774745 114.186382,27.7705521 C114.584266,27.6636296 114.932474,27.5136544 115.231005,27.3192069 C115.529536,27.1252326 115.767036,26.8957752 115.943506,26.6303616 C116.119975,26.365421 116.208446,26.0777713 116.208446,25.7669393 C116.208446,25.5341701 116.111932,25.2919388 115.919377,25.0392991 C115.726822,24.7871325 115.422141,24.5255037 115.004859,24.2534665 C114.266811,23.7685308 113.706651,23.3772704 113.324852,23.0796854 C112.943054,22.7825735 112.706973,22.5947496 112.617083,22.5171599 C112.135932,22.0904164 111.77637,21.6797586 111.538869,21.2851864 C111.301369,20.8906143 111.182619,20.4799564 111.182619,20.0527398 C111.182619,19.6586408 111.277241,19.2735308 111.466484,18.8983561 C111.655727,18.5231814 111.911205,18.1707159 112.231973,17.8409595 C112.55274,17.5112032 112.923657,17.2055754 113.34425,16.9240761 C113.76437,16.6425768 114.203887,16.4017647 114.662802,16.2011669 C115.121717,16.0010422 115.583944,15.8439703 116.049482,15.7308975 C116.514547,15.6178246 116.955957,15.5610517 117.373238,15.5610517 C117.687855,15.5610517 117.97787,15.5965348 118.244703,15.6679741 C118.51059,15.7389403 118.743359,15.8505938 118.942538,16.0024615 C119.141243,16.1543292 119.296896,16.350196 119.409496,16.5895886 C119.521622,16.8289813 119.577922,17.1166311 119.577922,17.4530109 C119.577922,17.9379467 119.439774,18.4006464 119.163952,18.8401638 C118.88813,19.2801543 118.467537,19.6908122 117.902646,20.0721373 L117.902646,20.0721373 Z M103.019612,26.5399979 C102.824218,26.7992612 102.594288,27.0608899 102.330294,27.3248842 C102.066299,27.5888786 101.790004,27.8259057 101.501881,28.0359657 C101.213285,28.2464988 100.917593,28.461763 100.614331,28.5937601 C100.311541,28.7257573 100.018214,28.8213251 99.7343495,28.8213251 C99.167566,28.8213251 98.7100705,28.6377592 98.3632823,28.3297658 C98.0325797,28.0364388 97.8613146,27.5354173 97.845702,26.9057105 C97.7061352,27.0599437 97.5788691,27.2127576 97.4175392,27.3688833 C97.1436096,27.6328776 96.864949,27.8699048 96.5815572,28.0799647 C96.2976924,28.2904978 96.0166662,28.4612899 95.7380055,28.593287 C95.4593448,28.7252842 95.2076513,28.820852 94.982925,28.820852 C94.5329992,28.820852 94.3953248,28.6907473 94.1559321,28.4906226 C93.9160663,28.2904978 93.7963699,27.9796658 93.7963699,27.5595458 C93.7963699,27.314949 93.8332724,27.0608899 93.9066041,26.7968956 C93.9799359,26.5329013 94.0627298,26.2812078 94.1559321,26.041342 C94.2486613,25.8019493 94.1247069,25.5866851 94.1980387,25.3960226 C94.2713704,25.20536 94.3082729,25.061062 94.3082729,24.9636018 C94.3082729,24.8756037 94.2690049,24.8046375 94.1909421,24.7507031 C94.1124061,24.6972419 93.9903442,24.6357379 93.8242833,24.5676103 C93.5990839,25.0076008 93.3913894,25.3690554 93.2007268,25.6529203 C93.087654,25.8208736 92.9461947,25.9831497 92.8141975,26.1477913 C92.7290381,26.2750574 92.6344165,26.4056352 92.5260747,26.5399979 C92.3254769,26.7893259 92.098385,27.122394 91.844326,27.3622598 C91.5897938,27.6016525 91.3333692,27.9522256 91.074106,28.1476192 C90.8148428,28.3434859 90.5655148,28.4996116 90.3261221,28.6169424 C90.0867294,28.7342732 89.879035,28.7929386 89.7030388,28.7929386 C89.380379,28.7929386 89.1234814,28.7101447 88.9328188,28.5436107 C88.7421562,28.3775497 88.6470615,27.8382065 88.6470615,27.3688833 C88.6470615,27.2122845 88.6617279,27.021622 88.6910606,26.7968956 C88.5737298,27.1290175 88.4464637,27.5089233 88.3097354,27.7289185 C88.1725341,27.9489138 88.0310748,28.3444322 87.8844113,28.4712251 C87.7377478,28.5984912 87.5910843,28.6888549 87.4444208,28.7427892 C87.2977572,28.7962504 87.1605559,28.8232175 87.0337629,28.8232175 C86.6131698,28.8232175 86.2659085,28.6547911 85.992452,28.317465 C85.7970584,28.076653 85.672631,27.5846206 85.6168042,27.0779218 C85.5103549,27.1919409 85.4199913,27.3050137 85.3031336,27.419979 C85.029204,27.6891775 84.7458122,27.9309357 84.4524852,28.1461999 C84.1591582,28.3609909 83.8729278,28.5346216 83.5942671,28.6666188 C83.3156065,28.7986159 83.063913,28.8057125 82.8391866,28.8057125 C82.3991961,28.8057125 82.0959338,28.7692832 81.9298729,28.5786207 C81.7633389,28.3879581 81.7690161,28.0875345 81.7690161,27.6768767 C81.7690161,27.4322798 81.8130152,27.1536191 81.9010133,26.8408947 C81.9890114,26.5276971 82.000366,26.2197037 82.1129657,25.9169146 C82.2255655,25.6136523 82.3258644,25.3449269 82.4138625,25.1102653 C82.5018606,24.8756037 82.4569153,24.7634771 82.4569153,24.6849411 C82.4569153,24.5676103 82.3835836,24.5387507 82.2662527,24.5387507 C82.1976521,24.5387507 81.9894845,24.4886013 81.759554,24.6551353 C81.5300966,24.8211962 81.3470037,25.1935323 81.063612,25.5942549 C80.9562165,26.1615115 80.8530789,26.6549632 80.7849513,27.104889 C80.7163507,27.5548148 80.7021574,28.1040933 80.68276,28.6027492 C80.6046971,28.680812 80.5999661,28.7371119 80.5219032,28.7716488 C80.4433673,28.8057125 80.3260365,28.8227444 80.1699108,28.8227444 C79.759253,28.8227444 79.426658,28.7300153 79.172599,28.5440838 C78.9180668,28.3586254 78.7860697,27.9702037 78.7766075,27.5302131 C78.7766075,27.2468214 79.0174195,26.8943559 79.1153529,26.5035686 C79.2128132,26.1123082 79.1972006,25.9330002 79.3344019,25.5810078 C79.4015833,25.3898722 79.6130626,24.6324261 79.6130626,24.5822767 C79.6130626,24.4990096 78.9947103,24.5359121 78.8783257,24.6262757 C78.7023295,24.7634771 78.1175679,24.9877303 78.0262581,25.4773972 C77.9188625,26.0441806 77.8445846,26.7126824 77.8133594,27.1654468 C77.7054908,28.7219724 77.6179658,28.7891538 77.3880353,28.7905731 C77.5157744,28.7896269 77.0464512,28.886614 76.7526511,28.7394774 C76.5766549,28.6514793 76.4247872,28.3226692 76.2979942,28.1660704 C76.1707282,28.0099447 76.0704292,27.7256068 75.9970975,27.5302131 C75.9237657,27.3343464 75.8267786,27.1242864 75.8267786,26.8995601 C75.8267786,26.6156952 75.8783474,26.2982397 75.9516791,25.9462473 C76.0250109,25.5942549 76.1707282,25.2469935 76.2979942,24.9049364 C76.2393288,24.767735 76.2000609,24.618706 76.1806634,24.4573761 C76.1607929,24.2960463 76.1513307,24.1422861 76.1513307,23.9956226 C76.1513307,23.7803585 76.2170928,23.5579977 76.3490899,23.3280671 C76.4810871,23.0986097 76.6499867,22.8880766 76.8553156,22.697414 C77.0606445,22.5067515 77.2853708,22.4689028 77.5299677,22.3463678 C77.7740915,22.224306 78.0087531,22.163275 78.2339525,22.163275 C78.4487436,22.163275 78.6077079,22.2096396 78.7103724,22.3023688 C78.8130368,22.3955711 78.8646056,22.4357853 78.8646056,22.6609847 C78.8646056,22.8464431 78.8324343,23.0716425 78.7690378,23.3356369 C78.7056413,23.5996312 78.5859449,23.927022 78.4099487,24.3182823 C78.673943,23.8584213 78.9204324,23.4823004 79.1503629,23.1889733 C79.3802934,22.8956463 79.5950845,22.6633503 79.7956823,22.4920851 C79.9962801,22.3212931 80.1817385,22.3222393 80.3530036,22.2583697 C80.5242688,22.1949733 80.6926953,22.163275 80.8592293,22.163275 C81.142621,22.163275 81.3578852,22.2460689 81.5045487,22.412603 C81.6512122,22.5786639 81.724544,22.6657158 81.724544,22.9103127 C81.724544,23.0077729 81.7217053,23.1033408 81.7169743,23.19607 C81.7122432,23.2892723 81.6975768,23.3919367 81.6729752,23.5040633 C81.6483736,23.6166631 81.6119443,23.7387249 81.5632141,23.8707221 C81.5140109,24.0027193 81.4458833,24.1569525 81.3578852,24.3329487 C81.9540014,23.4330971 82.4649581,22.802444 82.8902823,22.4409895 C83.3156065,22.0790618 83.689835,22.1642212 84.0124947,22.1642212 C84.3545518,22.1642212 84.6062453,22.1263726 84.7675752,22.3463678 C84.9289051,22.5663631 85.0098065,22.6997796 85.0098065,22.9836444 C85.0098065,23.3744317 84.8778094,23.8782918 84.6138151,24.4942786 C84.5452144,24.6603395 84.4619474,24.8533676 84.3644871,25.0733629 C84.2665537,25.2933581 84.1738246,25.5157189 84.0858264,25.7409184 C83.9978283,25.9656447 83.9216579,26.1733392 83.8582615,26.3640017 C83.794865,26.5546643 83.7631667,26.6942312 83.7631667,26.7822293 C83.7631667,26.9288928 83.8312943,27.0022245 83.9684956,27.0022245 C84.1052239,27.0022245 84.381519,26.816293 84.7969079,26.4449032 C85.0840845,26.1880055 85.3944434,25.844529 85.7260922,25.419678 C85.7729299,25.2280692 85.8169289,25.0364604 85.8897876,24.846271 C86.0951165,24.3083471 86.3562722,23.826723 86.6742008,23.4013989 C86.9921294,22.9760747 87.3441218,22.631652 87.730178,22.3676577 C88.1162342,22.1036634 88.4951938,21.9716662 88.8670568,21.9716662 C89.0525151,21.9716662 89.1797812,22.00573 89.2483819,22.0743307 L89.2923809,21.4895691 C89.4097117,21.3627761 89.5805038,21.2251017 89.8057032,21.2251017 C90.049827,21.2251017 90.2698222,21.2468647 90.465689,21.3201964 C90.6610826,21.3935282 90.8224125,21.4299575 90.9496786,21.5472883 C91.0764715,21.6646191 91.1744049,21.6759737 91.2430056,21.817433 C91.3111331,21.9593654 91.34567,22.0937281 91.34567,22.2209942 C91.34567,22.3184545 91.3333692,22.4532903 91.3087676,22.6240823 C91.284166,22.7953474 91.2430056,22.9836444 91.1843402,23.1889733 C90.929808,24.1176845 90.7490807,24.8264004 90.6416852,25.3155942 C90.5338166,25.8043148 90.4803553,26.146372 90.4803553,26.3422387 C90.4803553,26.4889022 90.4950217,26.5816314 90.5243544,26.6208994 C90.5536871,26.6596943 90.5976862,26.6795648 90.6563516,26.6795648 C90.8030151,26.6795648 91.0547086,26.5329013 91.4114321,26.2395743 C91.6096643,26.0768251 91.8254016,25.8549374 92.0576977,25.5776961 C92.0605364,25.5739112 92.0614826,25.568707 92.0643212,25.5649222 C92.2597149,25.2909926 92.4281413,25.0463957 92.5700738,24.8316046 C92.7115331,24.6163404 92.8463689,24.3570772 92.973635,24.054288 C92.9149696,23.9856874 92.9078729,23.9024203 92.8638739,23.8049601 C92.8198748,23.7070267 92.8567773,23.5603632 92.8567773,23.4231618 C92.8567773,23.1691028 92.8387992,22.924979 93.0100643,22.631652 C93.1808563,22.338325 93.3838197,22.066761 93.626051,21.8250027 C93.958646,21.4919346 94.7175114,21.2109084 95.1149222,21.2109084 C95.3689812,21.2109084 95.5714715,21.2672083 95.7233392,21.3793349 C95.8747337,21.4919346 95.9509041,21.4091407 95.9509041,21.6050075 C95.9509041,21.712403 95.9362378,21.8103364 95.9069051,21.8983345 C95.7309089,21.9957948 95.569579,22.1012979 95.4229155,22.2134245 C95.276252,22.3260242 95.153717,22.465118 95.0562568,22.631652 C95.1343196,22.6803822 95.236984,22.7267467 95.3642501,22.7707458 C95.4910431,22.8147448 95.6183092,22.8563784 95.7455752,22.8956463 C96.1756305,23.0224393 96.4566567,23.1449743 96.5886539,23.2623051 C96.720651,23.3796359 96.7868861,23.5262994 96.7868861,23.7022956 C96.7868861,23.8489591 96.7499837,24.0126545 96.676652,24.1933818 C96.6033202,24.3745822 96.5082255,24.5822767 96.3908947,24.8169383 C96.2243606,25.1589954 96.0776971,25.4915904 95.9509041,25.8142501 C95.8236381,26.1369098 95.7602416,26.3909689 95.7602416,26.5769004 C95.7602416,26.6842959 95.7768004,26.7699285 95.8113373,26.8333249 C95.845401,26.8971945 95.9116362,26.9288928 96.0095696,26.9288928 C96.1070298,26.9288928 96.2413925,26.8749584 96.4126576,26.7675629 C96.5834497,26.6596943 96.7722198,26.5106652 96.9775487,26.3200027 C97.1828776,26.1293401 97.3929376,25.9046138 97.6082018,25.6453505 C97.8130576,25.397915 98.0093974,25.1291896 98.1967482,24.8415399 C98.2904236,24.4904937 98.4068082,24.0869325 98.5463751,23.6289639 C98.3997116,23.6090933 97.9355926,23.5825993 97.828197,23.5480624 C97.7208015,23.5139986 97.6086749,23.2779177 97.6086749,23.1113836 C97.6086749,22.8866573 97.6867377,22.7442517 97.8433365,22.5682555 C97.9994622,22.3922593 98.7043932,22.2058547 99.0076555,22.1959195 C99.0171177,22.0397938 99.0951805,22.088997 99.1051158,21.9423335 C99.1145779,21.79567 99.1197821,21.5558042 99.1491148,21.2823478 C99.1784475,20.959688 99.2489406,20.6639955 99.3615403,20.394797 C99.4741401,20.1260716 99.5100963,19.7182524 99.6813614,19.5176546 C99.8521534,19.3175299 100.018214,19.1278135 100.233005,19.020418 C100.44827,18.9125494 100.682931,18.8590881 100.93699,18.8590881 C101.279521,18.8590881 101.454571,18.9248502 101.611169,19.0568473 C101.767295,19.1888445 101.683082,19.1453185 101.845831,19.458043 C101.900238,19.5621268 101.83353,20.1653396 101.809402,20.2774662 C101.7848,20.3900659 101.53973,20.5319983 101.466398,20.7027904 C101.393066,20.8740555 101.295606,21.0841155 101.173071,21.3334434 C101.051009,21.5827714 101.073245,21.8737329 100.981462,22.3236587 C100.928947,22.3236587 101.761145,22.2328219 102.015204,22.2058547 C102.474592,22.1585439 102.35868,22.727693 102.35868,22.6595654 C102.35868,22.9434302 102.279198,23.3564536 102.205393,23.4524946 C102.138212,23.5390733 101.900238,23.6275445 101.655641,23.6275445 C101.489581,23.6275445 101.32352,23.6228135 101.156986,23.6128782 C100.990925,23.6029429 100.814928,23.5788144 100.584998,23.5986849 C100.389604,24.4100653 100.255242,25.1320283 100.18191,25.5573524 C100.108578,25.9826766 100.071676,26.2490365 100.071676,26.3569051 C100.071676,26.5329013 100.098643,26.6625329 100.152577,26.7453268 C100.206038,26.8285939 100.311541,26.8702274 100.467667,26.8702274 C100.770929,26.8702274 101.156986,26.6942312 101.626309,26.3422387 C102.095632,25.9902463 102.358207,25.7281444 102.856863,25.0241596 C103.229199,25.0241596 103.783209,25.0203747 103.753876,25.2417893 C103.72407,25.463677 103.606266,25.5890507 103.488935,25.8142501 C103.371604,26.0389765 103.215479,26.2812078 103.019612,26.5399979 L103.019612,26.5399979 Z M89.1092881,23.1421356 C88.7326941,23.0602879 88.4114537,23.3039386 88.2401886,23.5040633 C88.0693965,23.7046612 87.9175288,23.931753 87.7855317,24.1862852 C87.6535345,24.4403442 87.546139,24.7090696 87.462872,24.9929345 C87.3800781,25.2763262 87.2646397,25.677995 87.2646397,25.9618598 C87.2646397,26.2353163 87.1927273,26.6067062 87.3152622,26.8172393 C87.3639924,26.9014525 87.7155117,26.9128071 87.8233803,26.9128071 C87.9307759,26.9128071 88.2647902,26.610491 88.3627235,26.5423635 C88.4601838,26.4737628 88.6915337,26.18564 88.7795318,26.0782444 C88.7795318,26.0782444 89.4532377,23.3384755 89.1092881,23.1421356 L89.1092881,23.1421356 Z M76.0888805,14.3797008 L76.0888805,13.7883157 C75.6365891,12.909754 70.7446515,13.1354265 68.7557051,14.7345318 C68.7590169,15.3992487 68.7557051,15.562471 68.7557051,15.562471 L65.4439485,15.0893629 L65.4439485,18.4011195 L65.9170566,19.8204438 L65.9170566,20.2935519 C65.9170566,20.2935519 65.5735801,20.7666599 65.4439485,20.7666599 L64.9708404,20.7666599 C64.8388433,20.7666599 64.4977323,20.2935519 64.4977323,20.2935519 L64.4977323,19.8204438 L64.9708404,18.4011195 L64.9708404,14.9218826 C64.9708404,14.9218826 64.373778,14.7586604 64.2611783,14.7345318 C63.9385186,14.5623205 63.9470345,14.3229278 64.2611783,14.1431467 C64.4863777,14.0191924 71.4874312,10.1969522 71.5943536,10.121728 C71.8484127,9.9637099 71.9747325,9.95519395 72.4222928,10.121728 C72.6105898,10.1879631 79.8832073,12.6396092 80.1102992,12.7238225 C80.3960565,12.8302718 80.455195,13.21207 80.1102992,13.3152076 C80.0246666,13.3407554 76.0888805,14.3797008 76.0888805,14.3797008 L76.0888805,14.3797008 Z M69.1105362,14.8528089 C70.1650941,13.9742471 75.0518275,13.3800234 75.7340494,14.0248697 C75.7349956,14.5897608 75.7331032,14.3040035 75.7340494,14.8528089 C74.677599,14.3252933 71.4959472,14.6995218 69.1105362,16.5086872 C69.1105362,15.6291792 69.1100631,16.2612516 69.1105362,14.8528089 L69.1105362,14.8528089 Z M66.382595,25.012805 C66.6806531,24.71522 67.0383228,24.4498064 67.4560772,24.2170372 C67.8728854,23.984268 68.3318003,23.8063794 68.8328217,23.6833713 C69.0187532,23.6833713 69.1550083,23.7595417 69.2415871,23.9114094 C69.328639,24.0637502 69.3716918,24.2364347 69.3716918,24.430409 C69.3716918,24.5273961 69.3622297,24.6116094 69.3428323,24.6830487 C69.3234348,24.7540149 69.2851131,24.82025 69.2273939,24.8817541 C69.1696747,24.9432581 69.0925581,25.0014504 68.996044,25.056331 C68.9000031,25.1112115 68.7746294,25.1712962 68.6208693,25.2356389 C68.2613072,25.3908184 67.9788616,25.577223 67.7735327,25.7939065 C67.5682038,26.01059 67.4655394,26.225381 67.4655394,26.4387528 C67.4655394,26.5745348 67.5104846,26.7041664 67.6003752,26.8267014 C67.6902657,26.9497095 67.8312519,27.0580513 68.0238069,27.1517267 C68.2163619,27.2458752 68.4652168,27.3201532 68.7698984,27.3750337 C69.07458,27.4299142 69.442185,27.4573545 69.8722402,27.4573545 C70.3150694,27.4573545 70.7356625,27.4043664 71.1335464,27.297444 C71.5314303,27.1905215 71.8796378,27.0405463 72.178169,26.8460989 C72.4767002,26.6521245 72.7142005,26.4226671 72.8906698,26.1572535 C73.0671391,25.892313 73.1556103,25.6046632 73.1556103,25.2938312 C73.1556103,25.061062 73.0590963,24.8188307 72.8665413,24.566191 C72.6739863,24.3140244 72.3693047,24.0523956 71.9520234,23.7803585 C71.2139747,23.2954227 70.6538148,22.9041623 70.2720165,22.6065773 C69.8902183,22.3094654 69.6541374,22.1216415 69.5642468,22.0440518 C69.0830959,21.6173083 68.7235338,21.2066505 68.4860335,20.8120783 C68.2485333,20.4175062 68.1297831,20.0068484 68.1297831,19.5796318 C68.1297831,19.1855327 68.2244047,18.8004227 68.413648,18.425248 C68.6028912,18.0500733 68.8583696,17.6976078 69.1791369,17.3678514 C69.4999041,17.0380951 69.8708209,16.7324673 70.291414,16.450968 C70.7115339,16.1694687 71.1510514,15.9286567 71.6099662,15.7280588 C72.068881,15.5279341 72.5311077,15.3708622 72.996646,15.2577894 C73.4617113,15.1447166 73.9031211,15.0879436 74.3204024,15.0879436 C74.6350193,15.0879436 74.9250346,15.1234267 75.1918675,15.194866 C75.4577543,15.2658322 75.6905235,15.3774857 75.889702,15.5293534 C76.0884074,15.6812211 76.2440599,15.8770879 76.3566596,16.1164806 C76.4687863,16.3558733 76.5250861,16.643523 76.5250861,16.9799028 C76.5250861,17.4648386 76.3869386,17.9275383 76.1111165,18.3670557 C75.8352945,18.8070462 75.4147014,19.2177041 74.8498104,19.5990292 C74.5995362,19.7736061 74.3686595,19.8611311 74.156707,19.8611311 C73.9386042,19.8611311 73.7649735,19.782122 73.6367612,19.6236308 C73.508549,19.4651396 73.4442063,19.2792081 73.4442063,19.0658364 C73.4442063,18.884636 73.4971944,18.7034356 73.6031706,18.5222352 C73.7091468,18.3415079 73.880885,18.1863284 74.1183853,18.0566968 C74.3043168,17.9597097 74.4694315,17.8286587 74.6142026,17.663544 C74.7585005,17.4989024 74.8308861,17.3389919 74.8308861,17.1833393 C74.8308861,17.0347834 74.7807366,16.9377962 74.6813839,16.8923778 C74.5820312,16.8474326 74.4613886,16.8247234 74.3204024,16.8247234 C74.0507308,16.8247234 73.7569307,16.858314 73.4394752,16.9264416 C73.1215465,16.9945692 72.804091,17.0863521 72.4861624,17.2027367 C72.1687069,17.3191213 71.8607135,17.4586882 71.5621823,17.6200181 C71.2636511,17.781821 71.0001299,17.9563979 70.7725649,18.1442218 C70.5445268,18.3315726 70.3619071,18.530278 70.2237595,18.7408111 C70.085612,18.9508711 70.0170113,19.1595118 70.0170113,19.36626 C70.0170113,19.5086655 70.0458709,19.6411358 70.1035901,19.7641439 C70.1613092,19.887152 70.2459956,20.0101601 70.3585953,20.1326951 C70.4707219,20.2557032 70.6074502,20.3834424 70.7678338,20.5159127 C70.9282175,20.648856 71.1141489,20.7926809 71.3261014,20.9478603 L73.5790421,22.6259747 C73.8681111,22.8393465 74.125955,23.0479871 74.3539931,23.2518967 C74.5820312,23.4558063 74.7726938,23.6592428 74.926927,23.8631524 C75.0811602,24.0665888 75.1994373,24.2723909 75.2831774,24.4791391 C75.3664444,24.6863604 75.408551,24.9058826 75.408551,25.1386518 C75.408551,25.656232 75.2751346,26.1624577 75.0087747,26.6573287 C74.7424148,27.1517267 74.3639284,27.5931365 73.8728422,27.9815583 C73.381756,28.3695069 72.7913171,28.6831776 72.1010524,28.9225702 C71.4112608,29.1614898 70.6457719,29.2811862 69.8050589,29.2811862 C69.022065,29.2811862 68.3559288,29.2182628 67.8071234,29.0924161 C67.258318,28.9660962 66.807446,28.7948311 66.4545074,28.5781476 C66.1015688,28.3614641 65.8446711,28.1121361 65.6842874,27.8311099 C65.5239038,27.5496106 65.4434754,27.253918 65.4434754,26.943086 C65.4434754,26.6199532 65.5253231,26.2916162 65.6890185,25.9585481 C65.8527139,25.62548 66.0840638,25.31039 66.382595,25.012805 L66.382595,25.012805 Z" id="path-1" stroke="none" fill="#FFFFFF" fill-rule="evenodd" sketch:type="MSShapeGroup" mask="url(#mask-18)"></path>
                    <path d="M30.4543671,63 L16.5456329,63 C15.7610477,63 15,62.2835284 15,61.5886589 L15,52.4119412 C15,51.7386739 15.7368563,51 16.5456329,51 L30.4543671,51 C31.1912234,51 32,51.7164716 32,52.4119412 L32,61.5886589 C32,62.2835284 31.1912234,63 30.4543671,63 L30.4543671,63 Z M30.692358,52.20012 L16.307642,52.20012 L16.307642,61.79988 L30.692358,61.79988 L30.692358,52.20012 L30.692358,52.20012 Z M22.7268567,55.2352235 L24.0096535,57.1410141 C24.0312296,57.1710171 24.0573824,57.1980198 24.0868044,57.2232223 C24.1737625,57.2946295 24.1423791,58.0591059 24.2724895,58.0591059 C24.4091381,58.0591059 24.6830891,57.289829 24.7713549,57.2088209 C24.7883543,57.1932193 24.8046998,57.1758176 24.8190839,57.1578158 L25.8181224,56.6471647 C26.0364986,56.4155416 26.5589016,56.6129613 26.5909388,56.6471647 L28.7067036,59.6846685 L28.7302411,60.60036 L18.2697589,60.60036 L18.2697589,59.40024 L21.9546941,55.2352235 C22.2168763,54.9555956 22.4646744,54.9555956 22.7268567,55.2352235 L22.7268567,55.2352235 Z M27.3631014,55.9414941 L26.5909388,55.2352235 L26.5909388,54.529553 L27.3631014,53.8238824 L28.1359178,53.8238824 L28.9087343,54.529553 L28.9087343,55.2352235 L28.1359178,55.9414941 L27.3631014,55.9414941 L27.3631014,55.9414941 Z" id="path-1" stroke="none" opacity="0.9" fill="#CFDAE2" fill-rule="evenodd" sketch:type="MSShapeGroup" mask="url(#mask-18)"></path>
                </g>
            </g>
        </g>
    </g>
</svg>